<svg width="332" height="575" viewBox="0 0 332 575" fill="none" xmlns="http://www.w3.org/2000/svg">
<path d="M145.419 148.41C150.45 146.987 156.609 145.427 159.41 141.092C161.848 137.315 160.813 132.352 159.681 127.991C155.092 110.233 150.504 92.4746 145.917 74.715C144.943 70.9404 143.773 66.8691 140.651 64.5443C136.87 61.7246 131.624 62.4596 127.009 63.3891C107.427 67.3366 88.1105 72.5 69.1707 78.8495C65.2291 80.1637 60.9958 81.7867 58.8559 85.3616C56.6262 89.0735 57.3237 93.7837 58.134 98.0447C61.1209 113.751 64.6429 129.343 68.7 144.82C69.9326 149.516 71.3267 154.407 74.669 157.924C78.5266 161.987 84.4492 163.533 90.0337 163.291C95.6183 163.049 116.9 157.024 122.594 155.761C131.013 166.611 145.834 172.12 159.169 168.99C151.633 164.16 146.717 157.271 145.419 148.41Z" stroke="#1A1E23" stroke-width="3.33"/>
<path d="M85.543 138.718L141.241 126.99" stroke="#1A1E23" stroke-width="3.33" stroke-linecap="round" stroke-linejoin="round"/>
<path d="M85.062 119.374C100.627 114.485 116.522 110.722 132.626 108.112" stroke="#1A1E23" stroke-width="3.33" stroke-linecap="round" stroke-linejoin="round"/>
<path d="M79.959 100.329L129.035 89.6914" stroke="#1A1E23" stroke-width="3.33" stroke-linecap="round" stroke-linejoin="round"/>
<path d="M255.142 71.1137C251.038 70.6402 246.037 70.2029 243.305 67.1765C240.925 64.5389 241.104 60.5372 241.436 56.993C242.768 42.5625 244.1 28.1314 245.431 13.6998C245.713 10.6326 246.11 7.30938 248.251 5.10118C250.843 2.4236 255.027 2.33325 258.745 2.47421C274.517 3.07566 290.235 4.65901 305.81 7.21512C309.051 7.74141 312.558 8.47166 314.679 10.9891C316.888 13.6021 316.94 17.3639 316.847 20.7897C316.504 33.4173 315.73 46.0233 314.524 58.608C314.156 62.4262 313.688 66.4173 311.526 69.5835C309.031 73.2405 304.608 75.195 300.222 75.7129C295.835 76.2308 278.475 74.2243 273.874 73.9594C268.681 83.4869 257.819 89.6588 247.022 88.9045C252.289 84.1836 255.251 78.1893 255.142 71.1137Z" stroke="#1A1E23" stroke-width="3.33"/>
<path d="M300.615 55.98L255.691 53.8791" stroke="#1A1E23" stroke-width="3.33" stroke-linecap="round" stroke-linejoin="round"/>
<path d="M298.542 40.8316C285.785 38.9883 272.911 38.0641 260.021 38.0662" stroke="#1A1E23" stroke-width="3.33" stroke-linecap="round" stroke-linejoin="round"/>
<path d="M300.113 25.332L260.492 23.2444" stroke="#1A1E23" stroke-width="3.33" stroke-linecap="round" stroke-linejoin="round"/>
<path d="M345.034 455.091C332.369 505.728 322.514 607.8 384.414 611C461.789 615 474.254 688.5 461.789 717" stroke="#1A1E23" stroke-width="3.33" stroke-linecap="round" stroke-linejoin="round"/>
<path d="M161.351 446.082C155.696 462.596 150.053 480.467 144.403 497.268C144.15 498.018 144.062 498.815 144.146 499.602C144.229 500.39 144.482 501.15 144.886 501.831C145.29 502.512 145.837 503.098 146.488 503.548C147.14 503.999 147.881 504.303 148.661 504.441C191.651 512.078 283.865 509.682 338.342 504.007C339.21 503.916 340.044 503.619 340.775 503.142C341.506 502.665 342.114 502.021 342.547 501.262C342.98 500.504 343.227 499.654 343.267 498.782C343.306 497.91 343.138 497.04 342.776 496.246C335.172 479.588 326.913 464.331 319.516 447.228" fill="white"/>
<path d="M161.351 446.082C155.696 462.596 150.053 480.467 144.403 497.268C144.15 498.018 144.062 498.815 144.146 499.602C144.229 500.39 144.482 501.15 144.886 501.831C145.29 502.512 145.837 503.098 146.488 503.548C147.14 503.999 147.881 504.303 148.661 504.441C191.651 512.078 283.865 509.682 338.342 504.007C339.21 503.916 340.044 503.619 340.775 503.142C341.506 502.665 342.114 502.021 342.547 501.262C342.98 500.504 343.227 499.654 343.267 498.782C343.306 497.91 343.138 497.04 342.776 496.246C335.172 479.588 326.913 464.331 319.516 447.228" stroke="#1A1E23" stroke-width="3.33" stroke-linecap="round" stroke-linejoin="round"/>
<path d="M315.595 461.737L315.595 461.737C315.557 461.606 315.477 461.492 315.366 461.413C315.256 461.334 315.124 461.295 314.989 461.301C310.645 461.544 306.929 461.838 303.21 462.135L302.944 462.156C299.314 462.446 295.664 462.737 291.435 462.981L315.595 461.737ZM315.595 461.737L315.598 461.747M315.595 461.737L315.598 461.747M315.598 461.747C316.064 463.339 316.52 464.577 316.963 465.767C316.983 465.82 317.003 465.874 317.023 465.928C317.445 467.059 317.852 468.153 318.275 469.535L318.275 469.536M315.598 461.747L318.275 469.536M318.275 469.536C318.302 469.622 318.308 469.712 318.295 469.801M318.275 469.536L318.295 469.801M318.295 469.801C318.282 469.889 318.249 469.974 318.199 470.048M318.295 469.801L318.199 470.048M318.199 470.048C318.149 470.122 318.083 470.184 318.006 470.23M318.199 470.048L318.006 470.23M318.006 470.23C317.928 470.275 317.842 470.302 317.753 470.31M318.006 470.23L317.753 470.31M317.753 470.31L317.895 471.969M317.753 470.31L317.895 471.969M317.895 471.969L317.755 470.31C308.774 471.068 301.358 471.53 292.453 471.918M317.895 471.969C318.231 471.94 318.557 471.836 318.849 471.665L292.453 471.918M317.895 471.969C308.889 472.729 301.45 473.192 292.523 473.581L317.895 471.969ZM292.453 471.918C292.305 471.923 292.16 471.874 292.046 471.78L290.995 473.051L292.046 471.78C291.932 471.686 291.857 471.553 291.834 471.406M292.453 471.918L291.834 471.406M291.834 471.406C291.57 469.597 291.382 467.978 291.187 466.29C291.088 465.439 290.988 464.571 290.874 463.651C290.865 463.57 290.872 463.488 290.895 463.41C290.918 463.331 290.957 463.258 291.01 463.195L289.732 462.128L291.01 463.195C291.062 463.132 291.127 463.081 291.2 463.044C291.273 463.007 291.353 462.986 291.435 462.981L291.834 471.406Z" fill="#1A1E23" stroke="#1A1E23" stroke-width="3.33"/>
<mask id="path-13-inside-1_353_1971" fill="white">
<path d="M254.087 461.762C261.726 461.315 269.074 461.328 276.709 460.878C277.088 460.855 277.461 460.98 277.749 461.227C278.037 461.475 278.218 461.824 278.253 462.202C278.551 465.705 278.682 469.108 278.978 472.607C278.996 472.803 278.975 473 278.914 473.187C278.854 473.374 278.757 473.546 278.628 473.694C278.499 473.842 278.341 473.963 278.164 474.048C277.987 474.133 277.794 474.181 277.598 474.189C270.181 474.494 262.444 474.799 255.029 475.102C254.647 475.116 254.276 474.979 253.995 474.721C253.714 474.462 253.546 474.104 253.527 473.723C253.312 470.119 252.916 466.909 252.699 463.306C252.68 462.917 252.815 462.537 253.075 462.248C253.335 461.959 253.698 461.784 254.087 461.762Z"/>
</mask>
<path d="M254.087 461.762C261.726 461.315 269.074 461.328 276.709 460.878C277.088 460.855 277.461 460.98 277.749 461.227C278.037 461.475 278.218 461.824 278.253 462.202C278.551 465.705 278.682 469.108 278.978 472.607C278.996 472.803 278.975 473 278.914 473.187C278.854 473.374 278.757 473.546 278.628 473.694C278.499 473.842 278.341 473.963 278.164 474.048C277.987 474.133 277.794 474.181 277.598 474.189C270.181 474.494 262.444 474.799 255.029 475.102C254.647 475.116 254.276 474.979 253.995 474.721C253.714 474.462 253.546 474.104 253.527 473.723C253.312 470.119 252.916 466.909 252.699 463.306C252.68 462.917 252.815 462.537 253.075 462.248C253.335 461.959 253.698 461.784 254.087 461.762Z" fill="#1A1E23"/>
<path d="M254.087 461.762L254.273 465.087L254.281 465.087L254.087 461.762ZM276.709 460.878L276.904 464.202L276.911 464.202L276.709 460.878ZM278.253 462.202L281.571 461.92L281.57 461.907L281.569 461.894L278.253 462.202ZM278.978 472.607L275.659 472.887L275.661 472.904L275.662 472.921L278.978 472.607ZM277.598 474.189L277.735 477.516L277.739 477.516L277.598 474.189ZM255.029 475.102L255.147 478.43L255.156 478.43L255.165 478.43L255.029 475.102ZM253.527 473.723L256.853 473.557L256.852 473.541L256.851 473.525L253.527 473.723ZM252.699 463.306L249.373 463.473L249.374 463.49L249.375 463.506L252.699 463.306ZM254.281 465.087C258.044 464.867 261.742 464.759 265.496 464.65C269.235 464.541 273.03 464.431 276.904 464.202L276.513 457.554C272.753 457.775 269.056 457.884 265.302 457.993C261.564 458.101 257.769 458.211 253.892 458.438L254.281 465.087ZM276.911 464.202C276.427 464.232 275.95 464.072 275.582 463.756L279.916 458.699C278.971 457.889 277.748 457.479 276.506 457.554L276.911 464.202ZM275.582 463.756C275.214 463.44 274.983 462.993 274.938 462.51L281.569 461.894C281.454 460.655 280.861 459.509 279.916 458.699L275.582 463.756ZM274.935 462.485C275.081 464.192 275.186 465.88 275.293 467.612C275.399 469.331 275.508 471.094 275.659 472.887L282.296 472.327C282.152 470.621 282.047 468.932 281.94 467.2C281.834 465.479 281.724 463.715 281.571 461.92L274.935 462.485ZM275.662 472.921C275.638 472.667 275.666 472.41 275.745 472.167L282.084 474.207C282.283 473.59 282.354 472.939 282.293 472.293L275.662 472.921ZM275.745 472.167C275.823 471.923 275.95 471.699 276.118 471.506L281.138 475.883C281.564 475.394 281.886 474.824 282.084 474.207L275.745 472.167ZM276.118 471.506C276.286 471.314 276.491 471.157 276.721 471.046L279.606 477.049C280.191 476.768 280.712 476.371 281.138 475.883L276.118 471.506ZM276.721 471.046C276.952 470.936 277.202 470.873 277.458 470.862L277.739 477.516C278.387 477.489 279.022 477.33 279.606 477.049L276.721 471.046ZM277.461 470.862C270.032 471.167 262.328 471.471 254.893 471.775L255.165 478.43C262.56 478.127 270.331 477.821 277.735 477.516L277.461 470.862ZM254.911 471.774C255.404 471.757 255.884 471.934 256.247 472.268L251.743 477.173C252.668 478.023 253.891 478.475 255.147 478.43L254.911 471.774ZM256.247 472.268C256.611 472.602 256.828 473.065 256.853 473.557L250.201 473.888C250.263 475.143 250.817 476.323 251.743 477.173L256.247 472.268ZM256.851 473.525C256.74 471.665 256.583 469.914 256.43 468.216C256.277 466.506 256.128 464.851 256.023 463.106L249.375 463.506C249.487 465.364 249.644 467.115 249.797 468.812C249.95 470.521 250.098 472.176 250.203 473.921L256.851 473.525ZM256.025 463.138C256.05 463.629 255.879 464.109 255.551 464.474L250.598 460.022C249.75 460.965 249.31 462.206 249.373 463.473L256.025 463.138ZM255.551 464.474C255.223 464.839 254.763 465.06 254.273 465.087L253.901 458.438C252.634 458.509 251.446 459.078 250.598 460.022L255.551 464.474Z" fill="#1A1E23" mask="url(#path-13-inside-1_353_1971)"/>
<path d="M225.228 464.789L225.226 464.789C222.522 464.71 221.885 464.73 221.099 464.755C221.05 464.757 221.001 464.758 220.951 464.76L220.9 463.096L220.955 464.76C220.869 464.763 220.787 464.799 220.727 464.861C220.667 464.923 220.634 465.006 220.634 465.092C220.634 465.092 220.634 465.092 220.634 465.093L218.969 465.097C218.974 466.518 218.959 467.577 218.945 468.641C218.931 469.67 218.917 470.703 218.92 472.07L225.228 464.789ZM225.228 464.789C225.74 464.803 226 464.78 226.272 464.757M225.228 464.789L226.272 464.757M238.327 463.345L238.327 463.342C238.329 463.298 238.321 463.255 238.305 463.214C238.289 463.173 238.265 463.136 238.234 463.105L239.422 461.937L238.234 463.105C238.203 463.073 238.167 463.049 238.126 463.032L238.761 461.493L238.126 463.032C238.086 463.015 238.043 463.007 238 463.007C235.812 463.038 231.995 463.101 229.606 463.142C229.539 463.35 229.437 463.572 229.281 463.787C229.053 464.101 228.744 464.351 228.372 464.511C228.017 464.664 227.659 464.713 227.338 464.714M238.327 463.345L227.335 464.714C227.336 464.714 227.337 464.714 227.338 464.714M238.327 463.345C238.286 464.889 238.242 466.261 238.198 467.638M238.327 463.345L238.198 467.638M227.338 464.714C226.743 464.716 226.49 464.738 226.282 464.756M227.338 464.714L226.282 464.756M226.272 464.757L226.282 464.756M226.272 464.757L226.282 464.756M238.198 467.638L238.197 467.675M238.198 467.638L238.197 467.675M238.197 467.675C238.153 469.062 238.109 470.456 238.067 472.031M238.197 467.675L238.067 472.031M238.067 472.031C238.063 472.115 238.028 472.195 237.968 472.253L239.128 473.447L237.968 472.253C237.907 472.312 237.826 472.345 237.741 472.346L238.067 472.031ZM220.921 472.404C220.832 472.402 220.747 472.367 220.685 472.304C220.621 472.241 220.586 472.155 220.585 472.066L220.921 472.404Z" fill="#1A1E23" stroke="#1A1E23" stroke-width="3.33"/>
<path d="M194.859 462.615C194.861 462.606 194.863 462.598 194.865 462.59C198.886 462.582 204.069 462.624 208.081 463.076C208.034 465.131 208.069 467.484 208.102 469.689C208.116 470.625 208.13 471.533 208.137 472.381C205.65 472.387 203.002 472.384 200.36 472.381C197.912 472.379 195.469 472.376 193.164 472.38C193.433 469.081 194 465.813 194.859 462.615ZM192.621 472.358C192.621 472.358 192.623 472.358 192.625 472.359C192.623 472.358 192.621 472.358 192.621 472.358Z" fill="#1A1E23" stroke="#1A1E23" stroke-width="3.33"/>
<path d="M177.732 473.133C178.825 473.2 179.663 473.133 179.971 471.339C180.158 470.279 180.329 469.255 180.496 468.255C180.822 466.299 181.134 464.432 181.52 462.547C181.781 461.281 181.808 460.726 180.204 460.626C179.64 460.59 179.049 460.551 178.439 460.511C174.925 460.281 170.785 460.01 167.594 459.993C166.448 459.993 165.954 460.524 165.652 461.466C164.832 464.026 163.923 466.818 162.893 469.955L177.732 473.133ZM177.732 473.133C175.876 473.018 173.946 472.861 172.006 472.703M177.732 473.133L172.006 472.703M167.36 461.677C167.398 461.669 167.47 461.658 167.59 461.658C170.725 461.675 174.802 461.942 178.318 462.172C178.852 462.207 179.374 462.241 179.877 462.273C179.49 464.167 179.173 466.067 178.846 468.022C178.68 469.015 178.512 470.023 178.331 471.051L178.331 471.051L178.33 471.058C178.295 471.261 178.257 471.397 178.227 471.483C178.138 471.485 178.015 471.482 177.835 471.471L177.835 471.471C176.061 471.361 174.149 471.206 172.208 471.049C169.59 470.837 166.92 470.621 164.465 470.505C164.468 470.494 164.472 470.483 164.476 470.471C165.506 467.334 166.416 464.539 167.237 461.974L167.237 461.973C167.291 461.805 167.336 461.717 167.36 461.677ZM167.36 461.677C167.372 461.655 167.38 461.647 167.38 461.647C167.38 461.647 167.375 461.653 167.364 461.662C167.344 461.678 167.328 461.685 167.328 461.685C167.328 461.685 167.33 461.684 167.333 461.683C167.339 461.682 167.348 461.679 167.36 461.677ZM172.006 472.703C169.422 472.493 166.82 472.282 164.352 472.167L172.006 472.703Z" fill="#1A1E23" stroke="#1A1E23" stroke-width="3.33"/>
<path d="M242.618 279.073L237.258 262.882C236.178 259.619 234.073 256.746 231.146 254.943C221.592 249.057 212.097 246.683 204.127 241.655C201.368 239.92 198.261 242.844 199.422 245.886C202.791 254.714 207.118 260.263 212.195 269.233C213.75 271.983 216.821 273.131 219.592 271.61C225.082 268.596 229.62 263.609 234.317 258.453" stroke="#1A1E23" stroke-width="3.33" stroke-linecap="round" stroke-linejoin="round"/>
<path d="M199.794 248.908C196.644 247.42 192.583 247.943 189.988 250.288C187.072 252.937 186.297 257.655 188.21 261.099C184.402 258.863 179.05 258.936 175.236 261.16C171.422 263.383 168.957 267.75 169.029 272.164C158.515 266.647 145.081 271.323 134.419 276.547C91.0166 297.808 56.6522 336.838 41.0584 382.582C35.4471 399.042 32.1863 416.873 36.0058 433.84C39.8253 450.806 51.881 466.669 68.6611 471.234C81.3858 474.698 94.9644 471.458 107.335 466.885C118.291 462.835 128.971 457.708 140.309 455.082C142.894 454.483 144.447 454.163 144.723 450.78C146.607 427.281 147.495 401.833 146.034 377.038C145.866 374.176 143.918 373.942 141.656 373.866C126.377 373.356 111.123 375.444 96.5438 380.043C56.9474 392.627 73.8089 427.285 100.911 397.009M100.911 397.009C109.601 387.305 113.698 374.466 119.171 362.647C124.644 350.829 131.11 341.405 143.198 336.561M100.911 397.009C49.2032 442.006 -32.595 531.444 17.7878 577C68.6616 623 128.269 578.5 169.029 606C201.637 628 167.286 698.167 146.034 730.5" stroke="#1A1E23" stroke-width="3.33" stroke-linecap="round" stroke-linejoin="round"/>
<path d="M146.172 448.654C155.265 443.058 168.329 445.188 175.172 453.384C177.005 455.579 178.601 458.265 181.298 459.218C184.278 460.269 187.761 458.649 189.472 455.991C191.182 453.333 191.348 449.914 190.624 446.838C189.899 443.762 188.371 440.944 186.859 438.168" stroke="#1A1E23" stroke-width="3.33" stroke-linecap="round" stroke-linejoin="round"/>
<path d="M191.029 450.682C191.058 453.027 193.962 455.977 196.305 456.099C198.649 456.22 200.886 454.824 202.263 452.926C203.64 451.028 204.27 448.686 204.608 446.365C205.302 441.582 204.877 436.703 203.366 432.113" stroke="#1A1E23" stroke-width="3.33" stroke-linecap="round" stroke-linejoin="round"/>
<path d="M204.654 447.66C204.991 449.756 207.181 451.246 209.303 451.173C211.424 451.1 213.351 449.722 214.5 447.938C215.649 446.155 216.118 444.011 216.306 441.897C216.633 438.177 216.163 434.431 214.926 430.907" stroke="#1A1E23" stroke-width="3.33" stroke-linecap="round" stroke-linejoin="round"/>
<path d="M214.938 430.908C218.34 438.135 218.508 451.874 218.686 457.392C218.926 464.815 228.507 465.782 230.035 455.718C232.496 439.513 230.939 422.38 222.458 408.355C213.978 394.329 199.89 383.802 184.036 379.64C171.897 376.457 159.147 376.915 146.609 377.395" stroke="#1A1E23" stroke-width="3.33" stroke-linecap="round" stroke-linejoin="round"/>
<path d="M242.715 279.073L248.075 262.882C249.155 259.619 251.26 256.746 254.187 254.943C263.741 249.057 273.236 246.683 281.206 241.655C283.965 239.92 287.071 242.844 285.911 245.886C282.542 254.714 278.631 261.078 273.138 269.233C271.373 271.854 268.346 273.399 265.741 271.61C260.71 268.161 255.713 263.609 251.016 258.453" stroke="#1A1E23" stroke-width="3.33" stroke-linecap="round" stroke-linejoin="round"/>
<path d="M285.535 248.909C292.061 246.297 301.323 254.726 298.351 262.337C302.158 260.101 307.51 260.175 311.325 262.398C315.141 264.622 317.604 268.989 317.533 273.403C328.045 267.885 341.478 271.334 352.142 276.553C395.544 297.815 428.677 336.844 444.271 382.589C449.882 399.049 453.143 416.88 449.324 433.846C445.504 450.812 433.448 466.675 416.668 471.241C403.943 474.705 390.365 471.465 377.995 466.892C367.042 462.843 356.367 457.719 345.034 455.091C342.443 454.49 340.393 453.524 340.194 450.298C338.722 426.349 338.722 402.464 339.74 378.748C339.9 375.014 342.116 373.89 345.258 373.823C359.879 373.508 374.826 375.93 388.787 380.045C394.674 381.782 400.8 384.151 403.96 389.684C405.246 391.905 405.696 394.512 405.229 397.035C403.917 403.785 397.418 405.115 392.524 403.25C389.304 402.023 386.678 399.61 384.414 397.011C375.862 387.19 369.164 369.541 363.691 357.724C358.217 345.907 350.522 334.018 338.431 329.171" stroke="#1A1E23" stroke-width="3.33" stroke-linecap="round" stroke-linejoin="round"/>
<path d="M233.599 448.59L233.328 440.281C236.277 440.253 239.27 440.157 242.24 440.061L242.254 440.061C245.257 439.965 248.237 439.869 251.161 439.841C251.237 441.376 251.432 442.909 251.617 444.367L251.627 444.443C251.813 445.907 251.987 447.298 252.06 448.636C248.998 448.637 245.941 448.625 242.88 448.613L242.878 448.613C239.791 448.601 236.699 448.589 233.599 448.59Z" fill="#1A1E23" stroke="#1A1E23" stroke-width="3.33"/>
<path d="M339.156 448.653C330.063 443.057 316.999 445.187 310.156 453.383C308.323 455.578 306.727 458.263 304.03 459.217C301.05 460.268 298.375 459.117 296.669 456.458C294.962 453.798 295.64 450.32 296.364 447.244C297.088 444.168 298.616 441.351 300.128 438.576" stroke="#1A1E23" stroke-width="3.33" stroke-linecap="round" stroke-linejoin="round"/>
<path d="M295.845 449.73C295.091 454.22 291.366 455.977 289.023 456.099C286.679 456.22 284.442 454.824 283.065 452.926C281.689 451.028 281.058 448.686 280.72 446.365C280.026 441.582 280.451 436.703 281.962 432.113" stroke="#1A1E23" stroke-width="3.33" stroke-linecap="round" stroke-linejoin="round"/>
<path d="M280.666 447.66C280.33 449.756 278.139 451.246 276.018 451.173C273.897 451.1 271.969 449.722 270.82 447.938C269.671 446.155 269.202 444.011 269.015 441.897C268.688 438.177 269.158 434.431 270.394 430.907" stroke="#1A1E23" stroke-width="3.33" stroke-linecap="round" stroke-linejoin="round"/>
<path d="M338.717 377.389C326.18 376.909 313.426 376.451 301.29 379.635C282.449 384.579 263.603 392.049 247.539 403.065C245.714 404.316 243.874 405.656 242.681 407.519C241.487 409.383 241.075 411.904 242.217 413.799C244.06 416.856 248.656 416.664 251.863 415.099C255.07 413.533 258.832 411.468 261.913 409.988" stroke="#1A1E23" stroke-width="3.33" stroke-linecap="round" stroke-linejoin="round"/>
<path d="M270.388 430.908C267.442 434.218 266.968 447.2 266.998 449.975C267.028 452.75 267.286 455.618 266.308 458.214C265.33 460.81 262.621 463.032 259.933 462.352C257.174 461.65 255.933 458.49 255.29 455.717C251.608 439.745 252.706 412.464 269.726 403.564" stroke="#1A1E23" stroke-width="3.33" stroke-linecap="round" stroke-linejoin="round"/>
<path d="M207.427 243.116C206.419 234.825 205.96 230 205.785 222.012C195.5 224.244 191.394 217.919 191.976 212.016C192.504 206.665 196.884 201.661 204.005 203.688C203.867 192.461 203.644 177.561 205.36 166.458" stroke="#1A1E23" stroke-width="3.33" stroke-linecap="round" stroke-linejoin="round"/>
<path d="M276.027 244.345C276.855 236.054 276.993 231.003 276.947 222.364C285.957 223.053 289.817 218.313 289.922 213.387C290.042 207.81 285.351 201.99 277.873 203.521C278.125 191.826 278.552 177.28 277.564 166.034" stroke="#1A1E23" stroke-width="3.33" stroke-linecap="round" stroke-linejoin="round"/>
<path d="M214.841 140.273C217.15 149.011 214.396 158.841 207.844 165.239C207.178 165.891 206.327 166.554 205.4 166.412C204.168 166.223 203.634 164.817 203.393 163.631C201.967 156.583 202.378 149.286 204.585 142.443C205.47 139.702 206.708 136.955 208.912 135.035C210.595 133.57 212.726 132.69 214.843 131.93C228.165 127.169 245.18 126.275 259.012 129.376C263.596 130.405 269.486 131.968 272.806 135.194C275.929 138.229 277.55 142.415 278.547 146.588C279.921 152.344 280.274 158.296 279.59 164.175C279.484 165.089 279.166 166.205 278.235 166.382C277.503 166.52 276.831 165.976 276.326 165.441C270.16 158.911 269.52 149.248 269.207 140.401C268.708 142.437 265.28 143.574 263.269 144.335C248.288 149.999 228.431 148.705 214.503 140.917" stroke="#1A1E23" stroke-width="3.33" stroke-linecap="round" stroke-linejoin="round"/>
<path d="M240.023 168.855C239.405 175.628 237.303 189.669 236.482 197.162C236.463 197.298 236.473 197.438 236.513 197.57C236.553 197.702 236.622 197.824 236.714 197.927C236.933 198.148 237.289 198.158 237.605 198.153C239.869 198.122 245.425 197.04 248.018 196.203" stroke="#1A1E23" stroke-width="3.33" stroke-linecap="round" stroke-linejoin="round"/>
<path d="M232.562 212.772C234.863 207.515 246.516 205.702 250.108 213.461" stroke="#1A1E23" stroke-width="3.33" stroke-linecap="round" stroke-linejoin="round"/>
<path d="M225.559 183.65C225.633 183.566 225.844 183.39 226.359 183.34L226.458 184.351C225.941 184.402 225.7 184.27 225.611 184.202C225.514 184.127 225.469 184.033 225.46 183.939C225.451 183.845 225.477 183.743 225.559 183.65ZM226.384 183.338C226.386 183.34 226.388 183.343 226.391 183.346C226.445 183.406 226.539 183.572 226.564 183.83C226.589 184.088 226.529 184.269 226.487 184.34C226.485 184.343 226.483 184.346 226.482 184.348C226.476 184.349 226.468 184.35 226.458 184.351L226.384 183.338ZM226.497 184.344C226.497 184.344 226.496 184.345 226.495 184.345L226.497 184.344Z" fill="#1A1E23" stroke="#1A1E23" stroke-width="3.33"/>
<path d="M252.307 183.37C252.437 183.357 252.509 183.374 252.542 183.385C252.574 183.397 252.6 183.412 252.626 183.437C252.686 183.495 252.767 183.628 252.787 183.83C252.807 184.032 252.753 184.18 252.704 184.25C252.683 184.28 252.66 184.301 252.629 184.319C252.599 184.336 252.532 184.367 252.403 184.38C252.274 184.392 252.202 184.375 252.17 184.364C252.137 184.353 252.111 184.337 252.085 184.312C252.024 184.254 251.943 184.12 251.923 183.917C251.903 183.715 251.957 183.568 252.006 183.499C252.027 183.469 252.049 183.448 252.08 183.431C252.109 183.413 252.177 183.382 252.307 183.37Z" fill="#1A1E23" stroke="#1A1E23" stroke-width="3.33"/>
<path d="M230.572 425.592L255.342 423.989" stroke="#1A1E23" stroke-width="3.33" stroke-linecap="round" stroke-linejoin="round"/>
<path d="M193.751 480.821C183.319 480.109 173.896 479.33 164.824 478.088C164.439 478.036 164.049 478.128 163.728 478.347C163.407 478.565 163.178 478.895 163.085 479.272C161.941 483.927 161.035 488.017 160.11 492.342C160.063 492.555 160.062 492.776 160.107 492.99C160.151 493.205 160.239 493.407 160.366 493.585C160.493 493.763 160.656 493.913 160.844 494.024C161.032 494.136 161.241 494.207 161.459 494.233C171.618 495.433 182.287 496.544 192.369 496.564C192.752 496.563 193.122 496.422 193.41 496.168C193.697 495.915 193.882 495.565 193.93 495.184C194.45 491.344 194.704 486.465 195.212 482.578C195.238 482.366 195.22 482.15 195.16 481.945C195.1 481.739 194.998 481.548 194.861 481.384C194.725 481.219 194.555 481.084 194.364 480.988C194.174 480.891 193.965 480.834 193.751 480.821Z" fill="#1A1E23"/>
<path d="M229.96 482.299C222.787 481.903 214.666 481.885 207.5 481.494C206.931 481.457 206.372 481.646 205.942 482.019C205.512 482.393 205.246 482.921 205.203 483.488C204.953 487.022 204.821 491.312 204.573 494.864C204.551 495.155 204.587 495.448 204.681 495.724C204.775 496.001 204.923 496.255 205.118 496.473C205.312 496.691 205.549 496.867 205.813 496.991C206.077 497.115 206.364 497.184 206.655 497.195C213.739 497.426 222.553 497.391 229.843 497.045C230.39 497.021 230.907 496.791 231.291 496.4C231.675 496.01 231.897 495.489 231.912 494.941C231.995 491.526 231.939 487.962 232.018 484.544C232.034 483.975 231.829 483.423 231.444 483.004C231.06 482.585 230.528 482.332 229.96 482.299Z" fill="#1A1E23"/>
<mask id="path-42-inside-2_353_1971" fill="white">
<path d="M261.405 481.703C256.08 481.755 250.455 482.081 245.278 482.234C245.084 482.239 244.894 482.282 244.717 482.361C244.54 482.441 244.38 482.554 244.247 482.695C244.114 482.836 244.01 483.002 243.941 483.183C243.873 483.364 243.84 483.557 243.846 483.751L244.122 495.499C244.133 495.89 244.296 496.26 244.577 496.532C244.858 496.803 245.234 496.953 245.624 496.95C251.112 496.898 256.384 496.65 261.947 496.513C262.145 496.508 262.341 496.462 262.521 496.38C262.702 496.298 262.865 496.181 263 496.035C263.135 495.889 263.239 495.718 263.307 495.531C263.374 495.344 263.404 495.146 263.394 494.947C263.178 490.924 263.072 487.139 262.896 483.136C262.882 482.75 262.718 482.385 262.44 482.118C262.162 481.85 261.79 481.701 261.405 481.703Z"/>
</mask>
<path d="M261.405 481.703C256.08 481.755 250.455 482.081 245.278 482.234C245.084 482.239 244.894 482.282 244.717 482.361C244.54 482.441 244.38 482.554 244.247 482.695C244.114 482.836 244.01 483.002 243.941 483.183C243.873 483.364 243.84 483.557 243.846 483.751L244.122 495.499C244.133 495.89 244.296 496.26 244.577 496.532C244.858 496.803 245.234 496.953 245.624 496.95C251.112 496.898 256.384 496.65 261.947 496.513C262.145 496.508 262.341 496.462 262.521 496.38C262.702 496.298 262.865 496.181 263 496.035C263.135 495.889 263.239 495.718 263.307 495.531C263.374 495.344 263.404 495.146 263.394 494.947C263.178 490.924 263.072 487.139 262.896 483.136C262.882 482.75 262.718 482.385 262.44 482.118C262.162 481.85 261.79 481.701 261.405 481.703Z" fill="#1A1E23"/>
<path d="M261.405 481.703L261.393 478.373L261.382 478.373L261.372 478.373L261.405 481.703ZM245.278 482.234L245.367 485.563L245.377 485.562L245.278 482.234ZM243.846 483.751L247.176 483.673L247.175 483.66L247.175 483.647L243.846 483.751ZM244.122 495.499L240.793 495.577L240.793 495.588L244.122 495.499ZM245.624 496.95L245.65 500.28L245.656 500.28L245.624 496.95ZM261.947 496.513L262.028 499.842L262.038 499.842L261.947 496.513ZM263.394 494.947L266.719 494.777L266.719 494.77L263.394 494.947ZM262.896 483.136L259.568 483.256L259.568 483.269L259.569 483.283L262.896 483.136ZM261.372 478.373C256.025 478.425 250.204 478.757 245.18 478.905L245.377 485.562C250.706 485.405 256.135 485.085 261.437 485.032L261.372 478.373ZM245.189 478.905C244.557 478.922 243.935 479.063 243.357 479.322L246.076 485.401C245.853 485.501 245.612 485.556 245.367 485.563L245.189 478.905ZM243.357 479.322C242.78 479.58 242.259 479.95 241.825 480.409L246.669 484.98C246.501 485.158 246.3 485.301 246.076 485.401L243.357 479.322ZM241.825 480.409C241.391 480.869 241.052 481.411 240.828 482.002L247.055 484.364C246.968 484.593 246.837 484.802 246.669 484.98L241.825 480.409ZM240.828 482.002C240.604 482.593 240.498 483.223 240.518 483.855L247.175 483.647C247.182 483.892 247.142 484.135 247.055 484.364L240.828 482.002ZM240.517 483.829L240.793 495.577L247.451 495.421L247.176 483.673L240.517 483.829ZM240.793 495.588C240.827 496.851 241.355 498.049 242.263 498.927L246.891 494.137C247.237 494.471 247.438 494.928 247.451 495.41L240.793 495.588ZM242.263 498.927C243.171 499.804 244.388 500.29 245.65 500.28L245.599 493.62C246.08 493.617 246.544 493.802 246.891 494.137L242.263 498.927ZM245.656 500.28C251.161 500.228 256.578 499.976 262.028 499.842L261.865 493.184C256.189 493.323 251.062 493.568 245.593 493.62L245.656 500.28ZM262.038 499.842C262.68 499.824 263.313 499.678 263.898 499.413L261.145 493.348C261.368 493.247 261.61 493.191 261.855 493.184L262.038 499.842ZM263.898 499.413C264.483 499.147 265.009 498.767 265.445 498.295L260.554 493.775C260.721 493.594 260.922 493.449 261.145 493.348L263.898 499.413ZM265.445 498.295C265.882 497.823 266.219 497.269 266.438 496.665L260.175 494.397C260.259 494.167 260.388 493.955 260.554 493.775L265.445 498.295ZM266.438 496.665C266.656 496.06 266.752 495.418 266.719 494.777L260.068 495.118C260.055 494.873 260.092 494.628 260.175 494.397L266.438 496.665ZM266.719 494.77C266.504 490.753 266.403 487.074 266.222 482.989L259.569 483.283C259.742 487.204 259.853 491.094 260.068 495.125L266.719 494.77ZM266.223 483.015C266.178 481.766 265.649 480.583 264.748 479.717L260.132 484.518C259.787 484.187 259.585 483.734 259.568 483.256L266.223 483.015ZM264.748 479.717C263.846 478.85 262.643 478.368 261.393 478.373L261.416 485.033C260.938 485.034 260.477 484.85 260.132 484.518L264.748 479.717Z" fill="#1A1E23" mask="url(#path-42-inside-2_353_1971)"/>
<path d="M276.661 483.141L276.661 483.142C276.724 485.107 276.814 487.018 276.904 488.942L276.905 488.948C276.995 490.867 277.086 492.801 277.15 494.792L277.15 494.796C277.151 494.842 277.171 494.886 277.204 494.918C277.237 494.949 277.281 494.966 277.326 494.966C281.98 494.826 286.353 494.563 291.04 494.282C291.437 494.258 291.837 494.234 292.239 494.21L292.339 495.872M276.661 483.141L291.278 482.911C291.318 482.913 291.356 482.929 291.386 482.957C291.415 482.985 291.433 483.022 291.437 483.062L291.437 483.066C291.837 487.199 292.079 490.003 292.4 494.023C292.402 494.046 292.399 494.069 292.392 494.09C292.384 494.112 292.373 494.133 292.357 494.15C292.342 494.168 292.323 494.182 292.303 494.192C292.282 494.203 292.259 494.209 292.236 494.21L292.339 495.872M276.661 483.141C276.66 483.12 276.664 483.098 276.672 483.078L275.114 482.489L276.661 483.141ZM292.339 495.872C292.582 495.857 292.82 495.794 293.039 495.686C293.258 495.578 293.453 495.428 293.613 495.244L275.485 494.846C275.5 495.331 275.706 495.792 276.058 496.126C276.411 496.46 276.881 496.642 277.367 496.631C282.05 496.489 286.45 496.225 291.136 495.944C291.535 495.92 291.935 495.896 292.339 495.872Z" fill="#1A1E23" stroke="#1A1E23" stroke-width="3.33"/>
<mask id="path-45-inside-3_353_1971" fill="white">
<path d="M323.851 493.609C318.32 494.361 314.212 494.342 308.678 494.742C308.334 494.766 307.992 494.662 307.72 494.449C307.448 494.236 307.265 493.929 307.206 493.589C306.457 489.188 306.3 487.023 305.728 482.577C305.703 482.394 305.714 482.208 305.762 482.029C305.811 481.851 305.894 481.684 306.008 481.539C306.122 481.393 306.264 481.272 306.425 481.182C306.587 481.093 306.765 481.037 306.949 481.017C311.154 480.595 316.017 480.258 320.58 479.765C320.913 479.728 321.248 479.814 321.523 480.007C321.797 480.2 321.992 480.486 322.071 480.812C322.96 484.5 323.628 487.268 324.991 491.835C325.048 492.027 325.063 492.229 325.034 492.427C325.006 492.625 324.936 492.815 324.827 492.983C324.719 493.152 324.576 493.295 324.408 493.403C324.239 493.511 324.05 493.581 323.851 493.609Z"/>
</mask>
<path d="M323.851 493.609C318.32 494.361 314.212 494.342 308.678 494.742C308.334 494.766 307.992 494.662 307.72 494.449C307.448 494.236 307.265 493.929 307.206 493.589C306.457 489.188 306.3 487.023 305.728 482.577C305.703 482.394 305.714 482.208 305.762 482.029C305.811 481.851 305.894 481.684 306.008 481.539C306.122 481.393 306.264 481.272 306.425 481.182C306.587 481.093 306.765 481.037 306.949 481.017C311.154 480.595 316.017 480.258 320.58 479.765C320.913 479.728 321.248 479.814 321.523 480.007C321.797 480.2 321.992 480.486 322.071 480.812C322.96 484.5 323.628 487.268 324.991 491.835C325.048 492.027 325.063 492.229 325.034 492.427C325.006 492.625 324.936 492.815 324.827 492.983C324.719 493.152 324.576 493.295 324.408 493.403C324.239 493.511 324.05 493.581 323.851 493.609Z" fill="#1A1E23"/>
<path d="M308.678 494.742L308.915 498.063L308.918 498.063L308.678 494.742ZM307.206 493.589L303.924 494.147L303.925 494.154L307.206 493.589ZM305.728 482.577L309.031 482.152L309.029 482.137L309.027 482.122L305.728 482.577ZM306.949 481.017L306.616 477.704L306.606 477.705L306.597 477.706L306.949 481.017ZM320.58 479.765L320.938 483.075L320.943 483.075L320.58 479.765ZM322.071 480.812L325.308 480.031L325.307 480.029L322.071 480.812ZM324.991 491.835L328.183 490.888L328.182 490.883L324.991 491.835ZM323.403 490.31C317.995 491.045 314.255 491 308.438 491.421L308.918 498.063C314.17 497.684 318.645 497.678 324.3 496.909L323.403 490.31ZM308.442 491.42C308.921 491.386 309.396 491.531 309.774 491.828L305.666 497.07C306.588 497.792 307.746 498.147 308.915 498.063L308.442 491.42ZM309.774 491.828C310.152 492.124 310.407 492.55 310.488 493.023L303.925 494.154C304.124 495.309 304.744 496.348 305.666 497.07L309.774 491.828ZM310.489 493.03C309.755 488.716 309.62 486.729 309.031 482.152L302.425 483.002C302.981 487.317 303.16 489.661 303.924 494.147L310.489 493.03ZM309.027 482.122C309.062 482.381 309.046 482.645 308.978 482.897L302.547 481.162C302.383 481.771 302.343 482.407 302.429 483.032L309.027 482.122ZM308.978 482.897C308.91 483.149 308.792 483.385 308.63 483.591L303.385 479.487C302.997 479.983 302.712 480.553 302.547 481.162L308.978 482.897ZM308.63 483.591C308.469 483.797 308.269 483.968 308.04 484.095L304.81 478.27C304.259 478.576 303.774 478.99 303.385 479.487L308.63 483.591ZM308.04 484.095C307.812 484.221 307.56 484.301 307.3 484.328L306.597 477.706C305.97 477.772 305.362 477.964 304.81 478.27L308.04 484.095ZM307.281 484.33C311.227 483.934 316.474 483.558 320.938 483.075L320.221 476.454C315.559 476.958 311.082 477.256 306.616 477.704L307.281 484.33ZM320.943 483.075C320.471 483.126 319.997 483.005 319.609 482.732L323.436 477.282C322.499 476.624 321.355 476.33 320.217 476.454L320.943 483.075ZM319.609 482.732C319.221 482.46 318.945 482.055 318.834 481.594L325.307 480.029C325.038 478.916 324.373 477.939 323.436 477.282L319.609 482.732ZM318.833 481.592C319.726 485.294 320.411 488.132 321.8 492.788L328.182 490.883C326.845 486.404 326.194 483.706 325.308 480.031L318.833 481.592ZM321.798 492.782C321.719 492.515 321.698 492.234 321.738 491.958L328.331 492.896C328.427 492.224 328.376 491.54 328.183 490.888L321.798 492.782ZM321.738 491.958C321.777 491.683 321.875 491.418 322.026 491.184L327.629 494.783C327.996 494.212 328.236 493.568 328.331 492.896L321.738 491.958ZM322.026 491.184C322.176 490.949 322.376 490.75 322.61 490.6L326.205 496.206C326.777 495.84 327.262 495.354 327.629 494.783L322.026 491.184ZM322.61 490.6C322.845 490.449 323.109 490.351 323.385 490.312L324.318 496.907C324.99 496.811 325.634 496.573 326.205 496.206L322.61 490.6Z" fill="#1A1E23" mask="url(#path-45-inside-3_353_1971)"/>
</svg>
