<svg width="468" height="703" viewBox="0 0 468 703" fill="none" xmlns="http://www.w3.org/2000/svg">
<path d="M145.63 148.41C150.661 146.987 156.82 145.427 159.621 141.092C162.059 137.315 161.024 132.352 159.892 127.991C155.303 110.233 150.715 92.4746 146.128 74.715C145.154 70.9404 143.984 66.8691 140.862 64.5443C137.081 61.7246 131.835 62.4596 127.219 63.3891C107.638 67.3366 88.3214 72.5 69.3816 78.8495C65.44 80.1637 61.2068 81.7867 59.0668 85.3616C56.8372 89.0735 57.5346 93.7837 58.3449 98.0447C61.3318 113.751 64.8538 129.343 68.911 144.82C70.1435 149.516 71.5376 154.407 74.8799 157.924C78.7375 161.987 84.6601 163.533 90.2447 163.291C95.8293 163.049 117.111 157.024 122.805 155.761C131.224 166.611 146.044 172.12 159.38 168.99C151.844 164.16 146.928 157.271 145.63 148.41Z" stroke="#1A1E23" stroke-width="3"/>
<path d="M85.7539 138.718L141.452 126.99" stroke="#1A1E23" stroke-width="3" stroke-linecap="round" stroke-linejoin="round"/>
<path d="M85.2729 119.374C100.838 114.485 116.733 110.722 132.837 108.112" stroke="#1A1E23" stroke-width="3" stroke-linecap="round" stroke-linejoin="round"/>
<path d="M80.1699 100.329L129.246 89.6914" stroke="#1A1E23" stroke-width="3" stroke-linecap="round" stroke-linejoin="round"/>
<path d="M340.39 186.974C336.276 185.843 331.241 184.606 328.931 181.086C326.919 178.018 327.734 173.962 328.633 170.397C332.272 155.88 335.912 141.362 339.55 126.844C340.323 123.758 341.253 120.429 343.787 118.514C346.856 116.191 351.141 116.76 354.912 117.491C370.914 120.597 386.706 124.696 402.198 129.766C405.422 130.815 408.886 132.114 410.653 135.019C412.494 138.035 411.953 141.882 411.316 145.364C408.972 158.197 406.19 170.941 402.97 183.594C401.992 187.433 400.883 191.432 398.177 194.322C395.053 197.66 390.229 198.955 385.671 198.791C381.113 198.626 363.712 193.836 359.058 192.838C352.253 201.742 340.191 206.324 329.291 203.848C335.413 199.862 339.383 194.213 340.39 186.974Z" stroke="#1A1E23" stroke-width="3"/>
<path d="M389.191 178.714L343.674 169.471" stroke="#1A1E23" stroke-width="3" stroke-linecap="round" stroke-linejoin="round"/>
<path d="M389.47 162.926C376.741 159.029 363.748 156.052 350.592 154.017" stroke="#1A1E23" stroke-width="3" stroke-linecap="round" stroke-linejoin="round"/>
<path d="M393.521 147.356L353.414 138.965" stroke="#1A1E23" stroke-width="3" stroke-linecap="round" stroke-linejoin="round"/>
<path d="M255.353 71.1137C251.249 70.6402 246.248 70.2029 243.516 67.1765C241.136 64.5389 241.315 60.5372 241.647 56.993C242.979 42.5625 244.311 28.1314 245.641 13.6998C245.924 10.6326 246.321 7.30938 248.462 5.10118C251.054 2.4236 255.238 2.33325 258.956 2.47421C274.728 3.07566 290.446 4.65901 306.021 7.21512C309.262 7.74141 312.769 8.47166 314.89 10.9891C317.099 13.6021 317.151 17.3639 317.058 20.7897C316.715 33.4173 315.941 46.0233 314.734 58.608C314.367 62.4262 313.899 66.4173 311.737 69.5835C309.242 73.2405 304.819 75.195 300.432 75.7129C296.046 76.2308 278.686 74.2243 274.085 73.9594C268.892 83.4869 258.03 89.6588 247.233 88.9045C252.5 84.1836 255.462 78.1893 255.353 71.1137Z" stroke="#1A1E23" stroke-width="3"/>
<path d="M300.826 55.98L255.902 53.8791" stroke="#1A1E23" stroke-width="3" stroke-linecap="round" stroke-linejoin="round"/>
<path d="M298.753 40.8316C285.996 38.9883 273.122 38.0641 260.232 38.0662" stroke="#1A1E23" stroke-width="3" stroke-linecap="round" stroke-linejoin="round"/>
<path d="M300.324 25.332L260.703 23.2444" stroke="#1A1E23" stroke-width="3" stroke-linecap="round" stroke-linejoin="round"/>
<path d="M345.245 455.091C332.58 505.728 322.725 607.8 384.625 611C462 615 474.465 688.5 462 717" stroke="#1A1E23" stroke-width="3.32567" stroke-linecap="round" stroke-linejoin="round"/>
<path d="M161.562 446.082C155.907 462.596 150.264 480.467 144.614 497.268C144.361 498.018 144.273 498.815 144.357 499.602C144.44 500.39 144.693 501.15 145.097 501.831C145.501 502.512 146.048 503.098 146.699 503.548C147.351 503.999 148.092 504.303 148.872 504.441C191.861 512.078 284.076 509.682 338.553 504.007C339.421 503.916 340.255 503.619 340.986 503.142C341.717 502.665 342.325 502.021 342.758 501.262C343.191 500.504 343.438 499.654 343.477 498.782C343.517 497.91 343.349 497.04 342.987 496.246C335.383 479.588 327.124 464.331 319.727 447.228" fill="white"/>
<path d="M161.562 446.082C155.907 462.596 150.264 480.467 144.614 497.268C144.361 498.018 144.273 498.815 144.357 499.602C144.44 500.39 144.693 501.15 145.097 501.831C145.501 502.512 146.048 503.098 146.699 503.548C147.351 503.999 148.092 504.303 148.872 504.441C191.861 512.078 284.076 509.682 338.553 504.007C339.421 503.916 340.255 503.619 340.986 503.142C341.717 502.665 342.325 502.021 342.758 501.262C343.191 500.504 343.438 499.654 343.477 498.782C343.517 497.91 343.349 497.04 342.987 496.246C335.383 479.588 327.124 464.331 319.727 447.228" stroke="#1A1E23" stroke-width="3.32567" stroke-linecap="round" stroke-linejoin="round"/>
<path d="M291.55 461.319C300.172 460.822 306.376 460.126 315.112 459.639C315.624 459.613 316.129 459.761 316.546 460.058C316.962 460.356 317.266 460.786 317.406 461.279C318.304 464.342 319.16 466.043 320.078 469.049C320.177 469.372 320.203 469.713 320.153 470.047C320.103 470.381 319.979 470.7 319.79 470.98C319.6 471.26 319.351 471.494 319.06 471.665C318.768 471.836 318.442 471.94 318.106 471.969C309.1 472.729 301.661 473.192 292.734 473.581C292.175 473.604 291.627 473.42 291.196 473.063C290.765 472.707 290.481 472.204 290.398 471.65C289.997 468.905 289.765 466.547 289.433 463.854C289.395 463.547 289.421 463.235 289.509 462.938C289.597 462.641 289.744 462.366 289.943 462.128C290.141 461.89 290.386 461.696 290.662 461.557C290.939 461.418 291.241 461.337 291.55 461.319Z" fill="#1A1E23"/>
<path d="M254.298 461.762C261.937 461.315 269.285 461.328 276.919 460.878C277.299 460.855 277.672 460.98 277.96 461.227C278.248 461.475 278.429 461.824 278.464 462.202C278.762 465.705 278.893 469.108 279.189 472.607C279.207 472.803 279.186 473 279.125 473.187C279.065 473.374 278.968 473.546 278.839 473.694C278.71 473.842 278.552 473.963 278.375 474.048C278.198 474.133 278.005 474.181 277.809 474.189C270.392 474.494 262.655 474.799 255.24 475.102C254.858 475.116 254.487 474.979 254.206 474.721C253.925 474.462 253.757 474.104 253.738 473.723C253.523 470.119 253.127 466.909 252.91 463.306C252.891 462.917 253.025 462.537 253.285 462.248C253.546 461.959 253.909 461.784 254.298 461.762Z" fill="#1A1E23"/>
<path d="M219.18 465.097C219.178 464.578 219.379 464.079 219.74 463.705C220.1 463.331 220.592 463.113 221.111 463.096C222.01 463.068 222.584 463.04 225.485 463.125C226.341 463.148 226.245 463.053 227.546 463.049C228.798 463.049 227.944 461.509 228.511 461.5C230.524 461.464 235.546 461.38 238.19 461.342C238.458 461.339 238.724 461.39 238.972 461.493C239.22 461.595 239.444 461.746 239.632 461.937C239.82 462.128 239.968 462.356 240.066 462.605C240.164 462.855 240.21 463.121 240.203 463.389C240.119 466.515 240.026 468.936 239.942 472.079C239.926 472.596 239.71 473.087 239.339 473.447C238.968 473.808 238.472 474.01 237.954 474.011C232.74 474.011 226.343 474.067 221.126 474.069C220.597 474.066 220.091 473.854 219.717 473.48C219.343 473.106 219.133 472.599 219.131 472.07C219.124 469.29 219.189 467.893 219.18 465.097Z" fill="#1A1E23"/>
<path d="M195.05 460.925C199.067 460.917 204.357 460.957 208.485 461.422C209.469 461.532 210.002 461.609 209.964 462.826C209.881 465.885 209.997 469.636 210.015 472.698C210.015 473.792 209.561 474.043 208.605 474.046C203.726 474.058 198.071 474.036 193.197 474.046C192.221 474.046 191.592 473.844 191.68 472.694C191.942 469.141 192.539 465.621 193.462 462.18C193.802 460.932 194.098 460.927 195.05 460.925Z" fill="#1A1E23"/>
<path d="M164.563 472.167C168.882 472.368 173.613 472.865 177.943 473.133C179.036 473.2 179.874 473.133 180.182 471.339C180.734 468.204 181.147 465.396 181.731 462.547C181.992 461.281 182.019 460.726 180.415 460.626C176.602 460.383 171.55 460.013 167.805 459.993C166.658 459.993 166.165 460.524 165.863 461.466C165.043 464.026 164.134 466.818 163.104 469.955C162.675 471.277 162.956 472.091 164.563 472.167Z" fill="#1A1E23"/>
<path d="M242.829 279.073L237.469 262.882C236.389 259.619 234.284 256.746 231.357 254.943C221.803 249.057 212.308 246.683 204.338 241.655C201.579 239.92 198.472 242.844 199.632 245.886C203.002 254.714 207.329 260.263 212.405 269.233C213.961 271.983 217.032 273.131 219.803 271.61C225.293 268.596 229.831 263.609 234.528 258.453" stroke="#1A1E23" stroke-width="3.32567" stroke-linecap="round" stroke-linejoin="round"/>
<path d="M200.005 248.908C196.855 247.42 192.794 247.943 190.199 250.288C187.283 252.937 186.508 257.655 188.421 261.099C184.613 258.863 179.261 258.936 175.447 261.16C171.633 263.383 169.168 267.75 169.239 272.164C158.726 266.647 145.292 271.323 134.63 276.547C91.2276 297.808 56.8632 336.838 41.2694 382.582C35.6581 399.042 32.3972 416.873 36.2167 433.84C40.0362 450.806 52.0919 466.669 68.872 471.234C81.5968 474.698 95.1753 471.458 107.546 466.885C118.502 462.835 129.182 457.708 140.52 455.082C143.104 454.483 144.658 454.163 144.934 450.78C146.818 427.281 147.706 401.833 146.245 377.038C146.077 374.176 144.129 373.942 141.867 373.866C126.588 373.356 111.334 375.444 96.7547 380.043C57.1584 392.627 74.0199 427.285 101.122 397.009M101.122 397.009C109.812 387.305 113.909 374.466 119.382 362.647C124.855 350.829 131.32 341.405 143.409 336.561M101.122 397.009C49.4141 442.006 -32.384 531.444 17.9987 577C68.8725 623 128.479 578.5 169.239 606C201.848 628 167.497 698.167 146.245 730.5" stroke="#1A1E23" stroke-width="3.32567" stroke-linecap="round" stroke-linejoin="round"/>
<path d="M146.383 448.654C155.476 443.058 168.54 445.188 175.383 453.384C177.216 455.579 178.812 458.265 181.509 459.218C184.489 460.269 187.972 458.649 189.683 455.991C191.393 453.333 191.559 449.914 190.835 446.838C190.11 443.762 188.582 440.944 187.07 438.168" stroke="#1A1E23" stroke-width="3.32567" stroke-linecap="round" stroke-linejoin="round"/>
<path d="M191.24 450.682C191.269 453.027 194.173 455.977 196.516 456.099C198.86 456.22 201.097 454.824 202.474 452.926C203.85 451.028 204.481 448.686 204.819 446.365C205.513 441.582 205.088 436.703 203.577 432.113" stroke="#1A1E23" stroke-width="3.32567" stroke-linecap="round" stroke-linejoin="round"/>
<path d="M204.865 447.66C205.202 449.756 207.392 451.246 209.514 451.173C211.635 451.1 213.562 449.722 214.711 447.938C215.86 446.155 216.329 444.011 216.517 441.897C216.844 438.177 216.373 434.431 215.137 430.907" stroke="#1A1E23" stroke-width="3.32567" stroke-linecap="round" stroke-linejoin="round"/>
<path d="M215.149 430.908C218.551 438.135 218.719 451.874 218.897 457.392C219.137 464.815 228.718 465.782 230.246 455.718C232.707 439.513 231.15 422.38 222.669 408.355C214.189 394.329 200.101 383.802 184.247 379.64C172.108 376.457 159.357 376.915 146.82 377.395" stroke="#1A1E23" stroke-width="3.32567" stroke-linecap="round" stroke-linejoin="round"/>
<path d="M242.926 279.073L248.286 262.882C249.366 259.619 251.471 256.746 254.398 254.943C263.952 249.057 273.447 246.683 281.417 241.655C284.176 239.92 287.282 242.844 286.122 245.886C282.752 254.714 278.842 261.078 273.349 269.233C271.584 271.854 268.557 273.399 265.952 271.61C260.921 268.161 255.924 263.609 251.227 258.453" stroke="#1A1E23" stroke-width="3.32567" stroke-linecap="round" stroke-linejoin="round"/>
<path d="M285.746 248.909C292.272 246.297 301.534 254.726 298.562 262.337C302.369 260.101 307.721 260.175 311.536 262.398C315.352 264.622 317.815 268.989 317.743 273.403C328.256 267.885 341.689 271.334 352.353 276.553C395.755 297.815 428.888 336.844 444.482 382.589C450.093 399.049 453.354 416.88 449.534 433.846C445.715 450.812 433.659 466.675 416.879 471.241C404.154 474.705 390.576 471.465 378.206 466.892C367.253 462.843 356.578 457.719 345.245 455.091C342.654 454.49 340.604 453.524 340.405 450.298C338.933 426.349 338.933 402.464 339.951 378.748C340.111 375.014 342.327 373.89 345.469 373.823C360.09 373.508 375.037 375.93 388.998 380.045C394.885 381.782 401.011 384.151 404.171 389.684C405.457 391.905 405.907 394.512 405.44 397.035C404.128 403.785 397.629 405.115 392.735 403.25C389.515 402.023 386.889 399.61 384.625 397.011C376.073 387.19 369.375 369.541 363.901 357.724C358.428 345.907 350.733 334.018 338.642 329.171" stroke="#1A1E23" stroke-width="3.32567" stroke-linecap="round" stroke-linejoin="round"/>
<path d="M253.006 438.168C246.055 438.168 238.769 438.625 231.818 438.625L232.199 450.257C239.471 450.242 246.698 450.314 253.968 450.299C254.047 446.345 252.934 442.122 253.006 438.168Z" fill="#1A1E23"/>
<path d="M339.367 448.653C330.274 443.057 317.21 445.187 310.367 453.383C308.534 455.578 306.938 458.263 304.241 459.217C301.26 460.268 298.586 459.117 296.88 456.458C295.173 453.798 295.851 450.32 296.575 447.244C297.299 444.168 298.827 441.351 300.339 438.576" stroke="#1A1E23" stroke-width="3.32567" stroke-linecap="round" stroke-linejoin="round"/>
<path d="M296.056 449.73C295.302 454.22 291.577 455.977 289.234 456.099C286.89 456.22 284.653 454.824 283.276 452.926C281.9 451.028 281.269 448.686 280.931 446.365C280.237 441.582 280.662 436.703 282.173 432.113" stroke="#1A1E23" stroke-width="3.32567" stroke-linecap="round" stroke-linejoin="round"/>
<path d="M280.877 447.66C280.541 449.756 278.35 451.246 276.229 451.173C274.107 451.1 272.18 449.722 271.031 447.938C269.882 446.155 269.413 444.011 269.226 441.897C268.899 438.177 269.369 434.431 270.605 430.907" stroke="#1A1E23" stroke-width="3.32567" stroke-linecap="round" stroke-linejoin="round"/>
<path d="M338.928 377.389C326.391 376.909 313.637 376.451 301.501 379.635C282.66 384.579 263.814 392.049 247.75 403.065C245.925 404.316 244.085 405.656 242.892 407.519C241.698 409.383 241.286 411.904 242.428 413.799C244.271 416.856 248.867 416.664 252.074 415.099C255.281 413.533 259.043 411.468 262.124 409.988" stroke="#1A1E23" stroke-width="3.32567" stroke-linecap="round" stroke-linejoin="round"/>
<path d="M270.599 430.908C267.653 434.218 267.179 447.2 267.209 449.975C267.239 452.75 267.497 455.618 266.519 458.214C265.541 460.81 262.832 463.032 260.144 462.352C257.385 461.65 256.144 458.49 255.501 455.717C251.819 439.745 252.917 412.464 269.937 403.564" stroke="#1A1E23" stroke-width="3.32567" stroke-linecap="round" stroke-linejoin="round"/>
<path d="M215.051 140.273C217.361 149.011 214.607 158.841 208.055 165.239C207.389 165.891 206.538 166.554 205.611 166.412C204.379 166.223 203.845 164.817 203.604 163.631C202.178 156.583 202.589 149.286 204.796 142.443C205.681 139.702 206.919 136.955 209.123 135.035C210.806 133.57 212.937 132.69 215.054 131.93C228.376 127.169 245.391 126.275 259.223 129.376C263.807 130.405 269.697 131.968 273.017 135.194C276.14 138.229 277.761 142.415 278.758 146.588C280.132 152.344 280.485 158.296 279.801 164.175C279.694 165.089 279.377 166.205 278.446 166.382C277.714 166.52 277.042 165.976 276.537 165.441C270.371 158.911 269.731 149.248 269.418 140.401C268.919 142.437 265.491 143.574 263.48 144.335C248.499 149.999 228.642 148.705 214.714 140.917" fill="#1A1E23"/>
<path d="M207.638 243.116C206.63 234.825 206.171 230 205.996 222.012C195.711 224.244 191.605 217.919 192.187 212.016C192.715 206.665 197.094 201.661 204.216 203.688C204.078 192.461 203.855 177.561 205.571 166.458" stroke="#1A1E23" stroke-width="3.32567" stroke-linecap="round" stroke-linejoin="round"/>
<path d="M276.238 244.345C277.066 236.054 277.204 231.003 277.158 222.364C286.168 223.053 290.028 218.313 290.133 213.387C290.253 207.81 285.561 201.99 278.084 203.521C278.336 191.826 278.763 177.28 277.775 166.034" stroke="#1A1E23" stroke-width="3.32567" stroke-linecap="round" stroke-linejoin="round"/>
<path d="M215.051 140.273C217.361 149.011 214.607 158.841 208.055 165.239C207.389 165.891 206.538 166.554 205.611 166.412C204.379 166.223 203.845 164.817 203.604 163.631C202.178 156.583 202.589 149.286 204.796 142.443C205.681 139.702 206.919 136.955 209.123 135.035C210.806 133.57 212.937 132.69 215.054 131.93C228.376 127.169 245.391 126.275 259.223 129.376C263.807 130.405 269.697 131.968 273.017 135.194C276.14 138.229 277.761 142.415 278.758 146.588C280.132 152.344 280.485 158.296 279.801 164.175C279.694 165.089 279.377 166.205 278.446 166.382C277.714 166.52 277.042 165.976 276.537 165.441C270.371 158.911 269.731 149.248 269.418 140.401C268.919 142.437 265.491 143.574 263.48 144.335C248.499 149.999 228.642 148.705 214.714 140.917" stroke="#1A1E23" stroke-width="3.32567" stroke-linecap="round" stroke-linejoin="round"/>
<path d="M240.234 168.855C239.616 175.628 237.514 189.669 236.693 197.162C236.674 197.298 236.684 197.438 236.724 197.57C236.764 197.702 236.833 197.824 236.925 197.927C237.144 198.148 237.5 198.158 237.816 198.153C240.08 198.122 245.636 197.04 248.229 196.203" stroke="#1A1E23" stroke-width="3.32567" stroke-linecap="round" stroke-linejoin="round"/>
<path d="M232.773 208.916C235.074 214.173 246.727 215.986 250.319 208.227" stroke="#1A1E23" stroke-width="3.32567" stroke-linecap="round" stroke-linejoin="round"/>
<path d="M226.831 186.008C229.245 185.772 228.827 181.448 226.409 181.683C222.936 182.022 223.354 186.348 226.831 186.008Z" fill="#1A1E23"/>
<path d="M252.777 186.037C255.56 185.761 255.142 181.441 252.356 181.712C249.57 181.984 249.99 186.309 252.777 186.037Z" fill="#1A1E23"/>
<path d="M230.783 425.592L255.553 423.989" stroke="#1A1E23" stroke-width="3.32567" stroke-linecap="round" stroke-linejoin="round"/>
<path d="M193.962 480.821C183.53 480.109 174.107 479.33 165.035 478.088C164.65 478.036 164.26 478.128 163.939 478.347C163.618 478.565 163.389 478.895 163.296 479.272C162.152 483.927 161.246 488.017 160.32 492.342C160.274 492.555 160.273 492.776 160.318 492.99C160.362 493.205 160.45 493.407 160.577 493.585C160.704 493.763 160.867 493.913 161.055 494.024C161.243 494.136 161.452 494.207 161.669 494.233C171.829 495.433 182.498 496.544 192.58 496.564C192.963 496.563 193.333 496.422 193.621 496.168C193.908 495.915 194.093 495.565 194.141 495.184C194.661 491.344 194.915 486.465 195.423 482.578C195.449 482.366 195.431 482.15 195.371 481.945C195.311 481.739 195.209 481.548 195.072 481.384C194.935 481.219 194.766 481.084 194.575 480.988C194.384 480.891 194.176 480.834 193.962 480.821Z" fill="#1A1E23"/>
<path d="M230.171 482.299C222.998 481.903 214.876 481.885 207.711 481.494C207.142 481.457 206.583 481.646 206.153 482.019C205.723 482.393 205.457 482.921 205.414 483.488C205.164 487.022 205.032 491.312 204.784 494.864C204.761 495.155 204.798 495.448 204.892 495.724C204.986 496.001 205.134 496.255 205.329 496.473C205.523 496.691 205.76 496.867 206.024 496.991C206.288 497.115 206.575 497.184 206.866 497.195C213.95 497.426 222.764 497.391 230.054 497.045C230.601 497.021 231.118 496.791 231.502 496.4C231.886 496.01 232.108 495.489 232.123 494.941C232.206 491.526 232.15 487.962 232.229 484.544C232.245 483.975 232.04 483.423 231.655 483.004C231.271 482.585 230.739 482.332 230.171 482.299Z" fill="#1A1E23"/>
<path d="M261.615 481.703C256.291 481.755 250.666 482.081 245.489 482.234C245.295 482.239 245.105 482.282 244.928 482.361C244.751 482.441 244.591 482.554 244.458 482.695C244.325 482.836 244.221 483.002 244.152 483.183C244.084 483.364 244.051 483.557 244.057 483.751L244.333 495.499C244.344 495.89 244.507 496.26 244.788 496.532C245.069 496.803 245.445 496.953 245.835 496.95C251.323 496.898 256.595 496.65 262.158 496.513C262.356 496.508 262.552 496.462 262.732 496.38C262.913 496.298 263.076 496.181 263.211 496.035C263.346 495.889 263.45 495.718 263.517 495.531C263.585 495.344 263.615 495.146 263.604 494.947C263.389 490.924 263.283 487.139 263.107 483.136C263.093 482.75 262.929 482.385 262.651 482.118C262.373 481.85 262.001 481.701 261.615 481.703Z" fill="#1A1E23"/>
<path d="M291.558 481.248C287.164 481.073 281.361 481.204 276.986 481.308C276.745 481.315 276.508 481.369 276.288 481.467C276.068 481.566 275.87 481.707 275.705 481.882C275.539 482.058 275.41 482.264 275.325 482.489C275.24 482.715 275.2 482.955 275.208 483.195C275.335 487.154 275.569 490.887 275.696 494.846C275.711 495.331 275.917 495.792 276.269 496.126C276.622 496.46 277.092 496.642 277.578 496.631C282.659 496.477 287.407 496.18 292.55 495.872C292.793 495.857 293.031 495.794 293.25 495.686C293.469 495.578 293.664 495.428 293.824 495.244C293.984 495.06 294.106 494.846 294.183 494.614C294.26 494.383 294.29 494.138 294.271 493.895C293.95 489.865 293.707 487.051 293.305 482.906C293.264 482.465 293.064 482.054 292.742 481.749C292.421 481.444 292 481.266 291.558 481.248Z" fill="#1A1E23"/>
<path d="M324.062 493.609C318.531 494.361 314.423 494.342 308.889 494.742C308.545 494.766 308.203 494.662 307.931 494.449C307.659 494.236 307.476 493.929 307.417 493.589C306.668 489.188 306.511 487.023 305.939 482.577C305.913 482.394 305.925 482.208 305.973 482.029C306.022 481.851 306.105 481.684 306.219 481.539C306.333 481.393 306.475 481.272 306.636 481.182C306.798 481.093 306.976 481.037 307.159 481.017C311.365 480.595 316.227 480.258 320.79 479.765C321.124 479.728 321.459 479.814 321.733 480.007C322.008 480.2 322.203 480.486 322.282 480.812C323.171 484.5 323.839 487.268 325.202 491.835C325.259 492.027 325.273 492.229 325.245 492.427C325.217 492.625 325.147 492.815 325.038 492.983C324.93 493.152 324.787 493.295 324.619 493.403C324.45 493.511 324.26 493.581 324.062 493.609Z" fill="#1A1E23"/>
</svg>
