<svg aria-hidden="true" style="position: absolute; width: 0; height: 0; overflow: hidden;" version="1.1" xmlns="http://www.w3.org/2000/svg" xmlns:xlink="http://www.w3.org/1999/xlink">
<defs>
<symbol id="arrow-left" viewBox="0 0 41 32">
<path d="M38.857 18.057c1.136 0 2.057-0.921 2.057-2.057s-0.921-2.057-2.057-2.057v4.114zM0.831 14.545c-0.803 0.803-0.803 2.106 0 2.909l13.092 13.092c0.803 0.803 2.106 0.803 2.909 0s0.803-2.106 0-2.909l-11.637-11.637 11.637-11.637c0.803-0.803 0.803-2.106 0-2.909s-2.106-0.803-2.909 0l-13.092 13.092zM38.857 13.943h-36.571v4.114h36.571v-4.114z"></path>
</symbol>
<symbol id="logo-icon" viewBox="0 0 35 32">
<path d="M17.071 11.687l-3.22 9.184h-4.38l3.22-9.185h4.379zM24.809 11.687l-3.242 9.184h-4.379l3.24-9.185h4.379z"></path>
<path d="M6.782 28.003l1.374-3.931-0.236-0.217c-2.206-2.049-3.584-4.961-3.594-8.196v-0.002c0-5.136 3.613-9.698 8.601-10.844 0.747-0.178 1.532-0.257 2.436-0.257h12.134l1.395-3.969h-13.51c-0.275 0-0.51 0-0.746 0.020-7.992 0.394-14.236 7.012-14.236 15.051 0 4.702 2.121 9.067 5.832 11.931l0.55 0.415z"></path>
<path d="M27.498 4.556l-1.375 3.931 0.236 0.218c2.209 2.046 3.588 4.96 3.594 8.196v0.001c0 5.136-3.613 9.699-8.601 10.844-0.747 0.178-1.532 0.257-2.435 0.257h-12.135l-1.394 3.97h13.509c0.276 0 0.51 0 0.747-0.020 7.972-0.395 14.216-7.012 14.216-15.052 0-4.701-2.121-9.067-5.831-11.931l-0.531-0.415z"></path>
</symbol>
<symbol id="logo-text" viewBox="0 0 294 32">
<path d="M12.667 31.077c1.975 0 3.822-0.334 5.542-1.001 1.72-0.666 3.109-1.667 4.16-3 1.067-1.333 1.602-2.994 1.602-4.981 0-1.428-0.267-2.607-0.8-3.541-0.5-0.922-1.18-1.686-2-2.267l-0.020-0.014c-0.732-0.527-1.571-0.979-2.467-1.316l-0.075-0.025c-0.589-0.234-1.375-0.493-2.176-0.715l-0.184-0.044-5.161-1.44c-0.64-0.174-1.28-0.387-1.92-0.64-0.624-0.254-1.156-0.613-1.6-1.060l-0-0c-0.427-0.454-0.64-1.035-0.64-1.74 0-0.747 0.245-1.402 0.739-1.961 0.507-0.561 1.167-0.994 1.981-1.3 0.72-0.27 1.552-0.427 2.42-0.427 0.092 0 0.183 0.002 0.273 0.005l-0.013-0c1.481 0.040 2.814 0.472 4.002 1.3s1.934 2.001 2.24 3.52l5.181-0.899c-0.64-2.667-1.954-4.728-3.941-6.182-1.987-1.466-4.462-2.214-7.421-2.24-1.947-0.014-3.723 0.3-5.323 0.94-1.586 0.626-2.854 1.566-3.8 2.821-0.934 1.254-1.402 2.808-1.402 4.663 0 1.265 0.207 2.331 0.622 3.2 0.427 0.853 0.966 1.554 1.62 2.1 0.667 0.549 1.367 0.981 2.101 1.301 0.747 0.32 1.44 0.573 2.080 0.759l7.442 2.202c2.133 0.64 3.2 1.746 3.2 3.322 0 0.019 0.001 0.042 0.001 0.065 0 0.848-0.327 1.62-0.862 2.197l0.002-0.002c-0.561 0.613-1.294 1.080-2.2 1.4-0.847 0.304-1.824 0.48-2.843 0.48-0.021 0-0.041-0-0.062-0l0.003 0c-1.734 0-3.267-0.468-4.602-1.402-1.32-0.933-2.194-2.252-2.621-3.96l-5.001 0.762c0.308 1.879 1.001 3.506 2.082 4.881 1.094 1.359 2.481 2.408 4.16 3.139 1.694 0.734 3.589 1.102 5.684 1.102zM36.923 31.077c2.082 0 3.982-0.533 5.702-1.6 1.734-1.082 3.014-2.601 3.84-4.562l-4.76-1.44c-0.96 2.054-2.647 3.081-5.062 3.081-1.64 0-2.933-0.474-3.881-1.42-0.945-0.96-1.513-2.334-1.699-4.122h15.642c0.187-2.601-0.099-4.855-0.859-6.761-0.762-1.908-1.928-3.383-3.502-4.422-1.56-1.041-3.461-1.56-5.702-1.56-2.12 0-3.988 0.48-5.602 1.44-1.614 0.948-2.874 2.295-3.779 4.041-0.908 1.748-1.362 3.802-1.362 6.162 0 2.187 0.46 4.122 1.381 5.801 0.92 1.66 2.239 2.999 3.832 3.916l0.049 0.026c1.653 0.946 3.575 1.42 5.762 1.42zM36.846 12.491c1.493 0 2.641 0.393 3.441 1.181 0.814 0.773 1.326 2.007 1.539 3.701h-10.642c0.574-3.255 2.461-4.882 5.662-4.882zM62.633 30.476v-4.041c-1.347 0.2-2.546 0.253-3.601 0.16-1.053-0.093-1.819-0.539-2.301-1.341-0.253-0.413-0.393-0.946-0.419-1.6-0.013-0.636-0.020-1.386-0.020-2.137 0-0.051 0-0.101 0-0.152v0.008-8.722h6.341v-3.781h-6.341v-6.002h-4.803v6.002h-3.921v3.781h3.921v9.003c0 1.24 0.014 2.347 0.040 3.322 0.026 0.96 0.286 1.906 0.78 2.84 0.549 1.008 1.399 1.794 2.428 2.247l0.032 0.013c1.080 0.468 2.301 0.715 3.66 0.741 1.374 0.040 2.775-0.073 4.203-0.34zM73.001 30.476h4.821v-24.286h9.323v-4.523h-23.467v4.523h9.323v24.286zM89.544 5.589h4.821v-4.422h-4.821v4.422zM89.544 30.476h4.821v-21.608h-4.821v21.608zM99.118 30.476h4.861v-13.303c0-1.349 0.367-2.441 1.1-3.282 0.747-0.84 1.734-1.26 2.962-1.26 1.266 0 2.266 0.421 3 1.26 0.733 0.841 1.1 2.014 1.1 3.52v13.065h4.8v-13.303c0-1.428 0.389-2.542 1.161-3.342 0.788-0.8 1.762-1.201 2.921-1.201 1.24 0 2.228 0.421 2.961 1.26 0.747 0.827 1.122 1.981 1.122 3.461v13.125h4.82v-14.344c0-2.347-0.64-4.236-1.92-5.662-1.266-1.426-3.093-2.141-5.481-2.141-1.402 0-2.682 0.308-3.84 0.92-1.137 0.594-2.064 1.451-2.726 2.493l-0.017 0.029c-0.576-1.052-1.406-1.902-2.409-2.486l-0.030-0.016c-1.054-0.625-2.341-0.94-3.861-0.94-0.025-0-0.054-0-0.083-0-1.27 0-2.474 0.288-3.548 0.802l0.050-0.021c-1.072 0.499-1.97 1.211-2.671 2.087l-0.011 0.015v-2.342h-4.261v21.608zM143.415 31.077c2.082 0 3.982-0.533 5.702-1.6 1.734-1.082 3.014-2.601 3.842-4.562l-4.762-1.44c-0.96 2.054-2.647 3.081-5.061 3.081-1.641 0-2.935-0.474-3.881-1.42-0.948-0.96-1.515-2.334-1.701-4.122h15.645c0.186-2.601-0.101-4.855-0.861-6.761-0.76-1.908-1.928-3.383-3.5-4.422-1.562-1.041-3.462-1.56-5.702-1.56-2.121 0-3.988 0.48-5.602 1.44-1.615 0.948-2.874 2.295-3.782 4.041-0.907 1.748-1.359 3.802-1.359 6.162 0 2.187 0.46 4.122 1.381 5.801 0.92 1.66 2.238 2.998 3.831 3.916l0.049 0.026c1.655 0.946 3.575 1.42 5.763 1.42zM143.336 12.491c1.493 0 2.641 0.393 3.441 1.181 0.814 0.773 1.327 2.007 1.541 3.701h-10.641c0.573-3.255 2.459-4.882 5.661-4.882zM166.005 31.077c2.161 0 4.047-0.48 5.661-1.44 1.605-0.976 2.887-2.341 3.734-3.967l0.026-0.055c0.908-1.719 1.361-3.7 1.361-5.941 0-2.226-0.446-4.194-1.339-5.902-0.871-1.69-2.154-3.062-3.718-4.016l-0.044-0.025c-1.614-0.974-3.508-1.46-5.681-1.46-2.121 0-3.988 0.48-5.602 1.44-1.611 0.968-2.899 2.326-3.756 3.947l-0.026 0.055c-0.907 1.707-1.359 3.695-1.359 5.961 0 2.228 0.439 4.203 1.32 5.923 0.874 1.682 2.155 3.046 3.716 3.996l0.044 0.025c1.614 0.972 3.502 1.46 5.662 1.46zM166.005 26.555c-1.854 0-3.261-0.62-4.221-1.861-0.948-1.254-1.422-2.927-1.422-5.022 0-2.040 0.454-3.694 1.361-4.962 0.92-1.28 2.348-1.92 4.282-1.92 1.894 0 3.314 0.626 4.261 1.88 0.948 1.24 1.42 2.907 1.42 5.001 0 2.027-0.472 3.682-1.42 4.962-0.934 1.28-2.354 1.92-4.261 1.92zM187.698 31.096c1.56 0 2.927-0.267 4.101-0.8s2.161-1.285 2.951-2.21l0.010-0.012v2.402h4.262v-21.608h-4.843v11.104c0 1.748-0.253 3.101-0.76 4.062-0.492 0.946-1.126 1.606-1.9 1.981-0.703 0.34-1.528 0.539-2.4 0.539h-0c-1.147 0-2.060-0.247-2.741-0.741-0.659-0.487-1.177-1.128-1.509-1.87l-0.012-0.030c-0.298-0.698-0.523-1.508-0.635-2.354l-0.005-0.048c-0.084-0.667-0.134-1.444-0.14-2.232l-0-0.008v-10.405h-4.881v12.064c0 0.506 0.040 1.179 0.12 2.021 0.093 0.84 0.286 1.726 0.579 2.661 0.33 1.016 0.793 1.899 1.378 2.685l-0.017-0.024c0.614 0.827 1.44 1.507 2.481 2.040 1.054 0.52 2.374 0.78 3.962 0.78zM216.105 30.476v-4.041c-1.347 0.2-2.548 0.253-3.601 0.16-1.054-0.093-1.821-0.539-2.301-1.341-0.253-0.413-0.393-0.946-0.421-1.6-0.013-0.63-0.020-1.374-0.020-2.119 0-0.057 0-0.114 0-0.171v0.009-8.722h6.342v-3.781h-6.342v-6.002h-4.802v6.002h-3.921v3.781h3.921v9.003c0 1.24 0.014 2.347 0.040 3.322 0.027 0.96 0.288 1.906 0.78 2.84 0.549 1.008 1.399 1.794 2.428 2.247l0.033 0.013c1.080 0.468 2.301 0.715 3.662 0.741 1.373 0.040 2.773-0.073 4.201-0.34zM220.35 30.476h4.942v-4.942h-4.942v4.942zM237.164 31.077c1.28 0 2.434-0.194 3.461-0.579 1.043-0.391 1.939-0.941 2.71-1.629l-0.008 0.007v1.6h4.261v-28.808h-4.861v8.262c-0.692-0.515-1.497-0.931-2.364-1.205l-0.057-0.016c-0.853-0.28-1.834-0.441-2.853-0.441-0.038 0-0.076 0-0.114 0.001l0.006-0c-2.040 0-3.814 0.494-5.321 1.481-1.493 0.986-2.654 2.341-3.48 4.061-0.827 1.72-1.24 3.674-1.24 5.861 0 2.161 0.407 4.102 1.219 5.821 0.814 1.722 1.961 3.083 3.442 4.084 1.48 1 3.214 1.499 5.201 1.499zM237.905 26.755c-1.254 0-2.287-0.314-3.101-0.94-0.814-0.64-1.42-1.493-1.821-2.56-0.387-1.067-0.581-2.261-0.581-3.581 0-1.307 0.201-2.494 0.6-3.563 0.414-1.079 1.035-1.934 1.861-2.56 0.841-0.64 1.908-0.96 3.202-0.96 1.841 0 3.174 0.654 4.002 1.96 0.84 1.307 1.26 3.016 1.26 5.122 0 2.095-0.421 3.802-1.26 5.122-0.827 1.307-2.214 1.961-4.162 1.961zM261.819 31.077c2.080 0 3.98-0.533 5.701-1.6 1.734-1.082 3.014-2.601 3.842-4.562l-4.762-1.44c-0.96 2.054-2.647 3.081-5.061 3.081-1.641 0-2.935-0.474-3.881-1.42-0.948-0.96-1.513-2.334-1.701-4.122h15.645c0.186-2.601-0.101-4.855-0.861-6.761-0.76-1.908-1.928-3.383-3.5-4.422-1.56-1.041-3.462-1.56-5.702-1.56-2.121 0-3.988 0.48-5.602 1.44-1.614 0.948-2.874 2.295-3.782 4.041-0.907 1.748-1.359 3.802-1.359 6.162 0 2.187 0.46 4.122 1.381 5.801 0.919 1.66 2.239 2.999 3.832 3.916l0.049 0.026c1.653 0.946 3.573 1.42 5.762 1.42zM261.739 12.491c1.493 0 2.641 0.393 3.441 1.181 0.814 0.773 1.327 2.007 1.541 3.701h-10.642c0.573-3.255 2.461-4.882 5.661-4.882zM279.925 30.476h4.841l7.843-21.608h-4.841l-5.422 15.665-5.442-15.665h-4.821l7.842 21.608z"></path>
</symbol>
</defs>
</svg>
