<svg width="413" height="351" viewBox="0 0 413 351" fill="none" xmlns="http://www.w3.org/2000/svg">
<path d="M61.7598 354.797C63.2375 336.589 71.9923 318.705 87.6458 309.375C105.246 298.885 127.756 299.165 145.149 288.333" stroke="#1A1E23" stroke-width="3.33" stroke-linecap="round" stroke-linejoin="round"/>
<path d="M205.431 323.497C204.253 318.459 197.331 305.62 191.897 296.798C189.473 292.863 186.93 291.598 183.483 290.078C178.897 288.058 173.163 285.58 168.376 284.096L149.362 278.207C148.192 277.844 146.909 277.485 145.773 277.943C143.402 278.897 143.584 282.273 144.187 284.757C147.219 297.255 152.516 307.84 160.487 319.003C161.362 320.228 162.937 320.926 164.441 321.008C167.089 321.153 169.061 318.702 170.553 316.508C175.573 309.103 181.621 300.287 186.642 292.884" stroke="#1A1E23" stroke-width="3.33" stroke-linecap="round" stroke-linejoin="round"/>
<path d="M205.432 323.499C206.913 317.424 216.748 300.756 218.716 297.384C220.416 294.467 222.526 292.18 225.552 291.014C232.389 288.385 239.984 285.639 246.462 283.518C250.489 282.197 254.617 281.215 258.695 280.062C260.616 279.52 263.073 279.141 264.266 280.737C265.071 281.811 264.885 283.323 264.491 284.605C263.533 287.717 261.607 290.428 259.653 293.031C253.44 301.307 246.632 309.12 239.283 316.406C237.014 318.656 233.666 321.004 230.925 319.365C229.344 318.419 228.706 316.488 228.19 314.72C226.233 308.02 223.77 300.342 221.813 293.643" stroke="#1A1E23" stroke-width="3.33" stroke-linecap="round" stroke-linejoin="round"/>
<path d="M264.385 286.783C276.681 296.673 292.593 300.494 307.564 305.483C322.534 310.472 338.034 317.754 345.815 331.483C350.726 340.147 351.953 350.534 350.882 360.436" stroke="#1A1E23" stroke-width="3.33" stroke-linecap="round" stroke-linejoin="round"/>
<path d="M148.705 277.211C148.348 268.29 148.897 259.74 148.54 250.816C121.896 255.256 117.456 218.589 146.552 219.501C147.138 198.958 147.454 176.454 148.677 154.557" stroke="#1A1E23" stroke-width="3.33" stroke-linecap="round" stroke-linejoin="round"/>
<path d="M258.881 279.4C259.087 269.983 259.554 262.035 259.408 251.521C288.301 255.725 287.834 217.16 261.027 219.429C261.605 197.457 261.196 175.692 259.983 153.748" stroke="#1A1E23" stroke-width="3.33" stroke-linecap="round" stroke-linejoin="round"/>
<path d="M207.341 137.596C124.57 137.46 134.163 172.76 206.114 172.662C266.756 172.579 288.279 139.674 206.088 137.634" stroke="#1A1E23" stroke-width="3.33" stroke-linecap="round" stroke-linejoin="round"/>
<path d="M163.81 167.962C164.058 178.54 163.714 189.81 162.447 199.983C162.178 202.139 161.83 204.361 160.672 206.197C158.131 210.232 152.726 211.108 147.982 211.593" stroke="#1A1E23" stroke-width="3.33" stroke-linecap="round" stroke-linejoin="round"/>
<path d="M243.824 168.487C243.989 173.861 244.155 179.235 244.32 184.609C244.467 189.399 244.668 194.388 246.963 198.592C249.781 203.751 255.417 206.902 261.186 208.038" stroke="#1A1E23" stroke-width="3.33" stroke-linecap="round" stroke-linejoin="round"/>
<path d="M194.404 224.401C194.99 220.252 197.034 217.364 199.678 215.676C203.112 213.483 207.558 213.315 211.134 215.035C214.273 216.543 216.738 219.504 217.27 223.826" stroke="#1A1E23" stroke-width="3.33" stroke-linecap="round" stroke-linejoin="round"/>
<path d="M197.617 202.181L207.646 202.566C207.995 202.579 208.411 202.56 208.596 202.264C208.703 202.099 208.699 201.88 208.691 201.679C208.381 193.826 208.137 186.063 207.16 178.113" stroke="#1A1E23" stroke-width="3.33" stroke-linecap="round" stroke-linejoin="round"/>
<path d="M186.773 189.453C190.869 189.453 190.875 183.086 186.773 183.086C182.67 183.086 182.669 189.453 186.773 189.453Z" fill="#1A1E23"/>
<path d="M234.834 66.7664L234.834 66.7666C239.405 75.305 239.826 86.0315 235.605 94.6802C233.796 98.3839 231.23 101.698 228.559 105.148C227.824 106.097 227.081 107.057 226.344 108.037C223.271 112.125 220.352 116.527 219.177 121.738L187.737 121.899C187.345 119.675 186.344 117.58 185.142 115.704C183.647 113.369 181.757 111.244 180.08 109.475L178.872 110.621L180.08 109.475C175.596 104.748 171.752 99.4386 169.336 93.523C166.921 87.6093 166.008 81.0669 167.32 74.9483L167.32 74.9482C169.225 66.0542 175.804 58.4727 183.93 53.9094C192.474 49.1116 202.791 47.4383 212.268 49.6938C221.746 51.9496 230.265 58.2267 234.834 66.7664Z" stroke="#1A1E23" stroke-width="3.33"/>
<path d="M225.982 189.448C230.078 189.448 230.086 183.081 225.982 183.081C221.878 183.081 221.878 189.448 225.982 189.448Z" fill="#1A1E23"/>
<path d="M183.864 138.205C184.518 142.727 185.883 147.492 189.424 150.379C192.117 152.574 195.867 153.517 199.313 153.94C202.743 154.362 206.06 154.337 209.454 153.683C212.848 153.03 216.144 151.54 218.555 149.064C220.987 146.564 222.386 143.206 223.075 139.788C223.763 136.369 223.795 132.857 223.823 129.37L223.858 124.951C223.86 124.666 223.806 124.383 223.698 124.119C223.59 123.855 223.431 123.614 223.23 123.412C223.028 123.21 222.789 123.05 222.525 122.941C222.261 122.832 221.979 122.777 221.693 122.778L189.907 122.9L185.62 122.917C185.058 122.916 184.519 123.136 184.117 123.529C183.716 123.922 183.484 124.456 183.472 125.018C183.402 128.295 183.348 134.627 183.864 138.205Z" fill="#1A1E23"/>
<path d="M260.119 109.258L279.558 120.8" stroke="#1A1E23" stroke-width="3.33" stroke-linecap="round" stroke-linejoin="round"/>
<path d="M261.451 87.2767C272.175 86.981 282.919 86.6726 293.683 86.3516" stroke="#1A1E23" stroke-width="3.33" stroke-linecap="round" stroke-linejoin="round"/>
<path d="M260.01 64.9306L277.934 61.5151" stroke="#1A1E23" stroke-width="3.33" stroke-linecap="round" stroke-linejoin="round"/>
<path d="M103.414 91.8139C118.082 91.1886 132.728 90.8764 147.375 90.3081" stroke="#1A1E23" stroke-width="3.33" stroke-linecap="round" stroke-linejoin="round"/>
<path d="M133.809 115.94C138.805 114.091 144.102 112.533 149.692 110.704" stroke="#1A1E23" stroke-width="3.33" stroke-linecap="round" stroke-linejoin="round"/>
<path d="M131.904 65.1523L146.88 69.7697" stroke="#1A1E23" stroke-width="3.33" stroke-linecap="round" stroke-linejoin="round"/>
<path d="M209.23 124.844C208.919 110.51 209.265 96.2 209.514 82.111C209.544 80.4705 209.58 78.7896 210.175 77.259C210.77 75.7285 212.039 74.3532 213.662 74.112C214.901 73.9286 216.495 74.5382 217.491 75.2965C220.079 77.2673 221.456 81.3486 220.062 84.2891C219.499 85.4548 218.71 86.4966 217.74 87.3536C216.77 88.2107 215.639 88.8658 214.413 89.2806C211.971 90.0918 209.583 90.2008 207.012 90.3321C205.202 90.4247 201.343 90.2842 199.456 90.2157C196.549 90.1091 193.405 90.2528 191.069 88.5191C187.971 86.2178 187.667 81.3948 189.569 78.0371C190.981 75.5443 194.14 73.5701 196.666 74.9215C199.032 76.1861 199.334 79.3992 199.319 82.0829C199.241 96.4206 198.793 110.354 198.551 125.056" stroke="#1A1E23" stroke-width="3.33" stroke-linecap="round" stroke-linejoin="round"/>
<path d="M260.109 156.972C260.876 174.166 261.111 191.323 261.081 208.533C256.095 206.409 250.843 204.023 247.857 199.5C245.388 195.761 244.847 191.105 244.505 186.637C244.003 180.085 243.782 173.516 243.844 166.932C249.913 165.424 255.965 161.657 260.109 156.972Z" fill="#1A1E23"/>
<path d="M163.68 166.94C164.488 178.076 164.199 189.344 162.021 200.295C161.577 202.525 161.023 204.81 159.664 206.633C158.259 208.512 156.112 209.723 153.87 210.407C151.628 211.091 149.271 211.294 146.932 211.492C147.03 193.217 147.483 174.888 148.563 156.646C150.08 159.321 152.684 161.265 155.331 162.83C157.979 164.395 160.802 165.86 163.68 166.94Z" fill="#1A1E23"/>
<path d="M205.432 322.973C205.499 326.619 205.492 339.549 205.684 346.719" stroke="#1A1E23" stroke-width="3.33" stroke-linecap="round" stroke-linejoin="round"/>
</svg>
