<svg width="243" height="36" viewBox="0 0 243 36" fill="none" xmlns="http://www.w3.org/2000/svg">
<path d="M58.3132 28.3939C59.6086 28.3939 60.8208 28.1751 61.9499 27.7374C63.079 27.2998 63.9893 26.6434 64.6807 25.7681C65.3809 24.8928 65.731 23.8032 65.731 22.499C65.731 21.5625 65.556 20.7879 65.2059 20.1752C64.8645 19.5538 64.4225 19.0549 63.8799 18.6785C63.3459 18.3022 62.7902 18.009 62.2125 17.7989C61.6436 17.5888 61.1272 17.4225 60.6633 17.3L57.2761 16.3547C56.8559 16.241 56.4358 16.1009 56.0157 15.9346C55.5956 15.7596 55.2455 15.5276 54.9654 15.2388C54.6853 14.9412 54.5453 14.5605 54.5453 14.0966C54.5453 13.6064 54.7072 13.1776 55.031 12.81C55.3636 12.4424 55.7969 12.1579 56.3308 11.9566C56.8734 11.7553 57.4599 11.6634 58.09 11.6809C59.0616 11.7071 59.9368 11.9916 60.7158 12.5343C61.4948 13.0769 61.9849 13.8471 62.1862 14.8449L65.5866 14.2541C65.1665 12.5036 64.3044 11.1513 63.0002 10.1973C61.6961 9.23454 60.0725 8.7444 58.1294 8.7269C56.8516 8.71814 55.6875 8.92383 54.6372 9.34395C53.5956 9.75532 52.7641 10.3724 52.1427 11.1951C51.53 12.0179 51.2237 13.0375 51.2237 14.2541C51.2237 15.0856 51.3593 15.7858 51.6307 16.3547C51.9107 16.9149 52.2652 17.3744 52.6941 17.7333C53.1317 18.0921 53.5912 18.3766 54.0726 18.5866C54.5628 18.7967 55.0179 18.963 55.438 19.0855L60.3219 20.5297C61.7224 20.9498 62.4226 21.6763 62.4226 22.7091C62.4226 23.2868 62.2344 23.7813 61.858 24.1926C61.4904 24.5953 61.009 24.9016 60.4138 25.1117C59.8187 25.3217 59.1841 25.4268 58.5102 25.4268C57.3723 25.4268 56.3658 25.1204 55.4905 24.5077C54.624 23.8951 54.0507 23.0286 53.7707 21.9082L50.4885 22.4071C50.6898 23.6412 51.1449 24.709 51.8539 25.6106C52.5716 26.5033 53.4818 27.1904 54.5846 27.6718C55.6962 28.1532 56.9391 28.3939 58.3132 28.3939ZM74.2313 28.3939C75.5967 28.3939 76.8439 28.0438 77.973 27.3436C79.1109 26.6346 79.9511 25.6368 80.4938 24.3502L77.3691 23.4049C76.7389 24.7528 75.6317 25.4268 74.0475 25.4268C72.9709 25.4268 72.1219 25.116 71.5005 24.4946C70.8791 23.8644 70.5071 22.9629 70.3846 21.7901H80.6513C80.7738 20.0833 80.5857 18.6041 80.0868 17.3525C79.5879 16.1009 78.822 15.1338 77.7892 14.4511C76.7652 13.7684 75.5179 13.427 74.0475 13.427C72.6559 13.427 71.4305 13.7421 70.3714 14.3723C69.3124 14.9937 68.4853 15.8777 67.8901 17.0243C67.2949 18.1709 66.9973 19.5188 66.9973 21.068C66.9973 22.5034 67.2993 23.7725 67.9032 24.8753C68.5159 25.9782 69.3649 26.8403 70.4502 27.4617C71.5355 28.0831 72.7959 28.3939 74.2313 28.3939ZM74.1788 16.1972C75.1591 16.1972 75.9118 16.4554 76.437 16.9718C76.9709 17.4794 77.3078 18.2891 77.4479 19.4006H70.4633C70.8397 17.265 72.0782 16.1972 74.1788 16.1972ZM91.1035 28V25.348C90.2195 25.4793 89.4317 25.5143 88.7403 25.453C88.0488 25.3917 87.5456 25.0985 87.2305 24.5734C87.0642 24.302 86.9723 23.9519 86.9548 23.5231C86.946 23.0854 86.9416 22.5866 86.9416 22.0264V16.3022H91.1035V13.8209H86.9416V9.88223H83.7907V13.8209H81.2175V16.3022H83.7907V22.2102C83.7907 23.0242 83.7995 23.7506 83.817 24.3896C83.8345 25.0198 84.0052 25.6412 84.329 26.2539C84.6966 26.9278 85.2349 27.4223 85.9439 27.7374C86.6528 28.0438 87.4537 28.2057 88.3464 28.2232C89.2479 28.2494 90.167 28.1751 91.1035 28ZM97.9073 28H101.071V12.0616H107.189V9.0945H91.7893V12.0616H97.9073V28ZM108.763 11.6677H111.927V8.76628H108.763V11.6677ZM108.763 28H111.927V13.8209H108.763V28ZM115.046 28H118.236V19.2693C118.236 18.3853 118.477 17.6676 118.959 17.1162C119.449 16.5648 120.096 16.2891 120.902 16.2891C121.733 16.2891 122.39 16.5648 122.871 17.1162C123.352 17.6676 123.593 18.4378 123.593 19.4269V28H126.744V19.2693C126.744 18.3328 126.998 17.602 127.505 17.0768C128.022 16.5517 128.661 16.2891 129.422 16.2891C130.236 16.2891 130.884 16.5648 131.365 17.1162C131.855 17.6589 132.1 18.416 132.1 19.3875V28H135.265V18.5866C135.265 17.0462 134.844 15.8077 134.004 14.8712C133.173 13.9347 131.974 13.4664 130.407 13.4664C129.488 13.4664 128.648 13.6677 127.886 14.0703C127.125 14.4729 126.525 15.0244 126.087 15.7246C125.711 15.0331 125.177 14.4861 124.486 14.0835C123.794 13.6721 122.95 13.4664 121.952 13.4664C121.103 13.4664 120.32 13.6371 119.602 13.9784C118.893 14.311 118.306 14.7705 117.843 15.3569V13.8209H115.046V28ZM144.117 28.3939C145.482 28.3939 146.729 28.0438 147.858 27.3436C148.996 26.6346 149.836 25.6368 150.379 24.3502L147.254 23.4049C146.624 24.7528 145.517 25.4268 143.933 25.4268C142.856 25.4268 142.007 25.116 141.386 24.4946C140.764 23.8644 140.392 22.9629 140.27 21.7901H150.537C150.659 20.0833 150.471 18.6041 149.972 17.3525C149.473 16.1009 148.707 15.1338 147.675 14.4511C146.65 13.7684 145.403 13.427 143.933 13.427C142.541 13.427 141.316 13.7421 140.257 14.3723C139.198 14.9937 138.371 15.8777 137.775 17.0243C137.18 18.1709 136.883 19.5188 136.883 21.068C136.883 22.5034 137.185 23.7725 137.789 24.8753C138.401 25.9782 139.25 26.8403 140.336 27.4617C141.421 28.0831 142.681 28.3939 144.117 28.3939ZM144.064 16.1972C145.044 16.1972 145.797 16.4554 146.322 16.9718C146.856 17.4794 147.193 18.2891 147.333 19.4006H140.349C140.725 17.265 141.963 16.1972 144.064 16.1972ZM158.941 28.3939C160.359 28.3939 161.597 28.0788 162.656 27.4486C163.715 26.8097 164.538 25.93 165.124 24.8097C165.72 23.6806 166.017 22.3809 166.017 20.9104C166.017 19.4488 165.724 18.1578 165.138 17.0374C164.551 15.9084 163.728 15.0244 162.669 14.3854C161.61 13.7465 160.367 13.427 158.941 13.427C157.549 13.427 156.324 13.7421 155.265 14.3723C154.206 15.0025 153.378 15.8777 152.783 16.9981C152.188 18.1184 151.891 19.4225 151.891 20.9104C151.891 22.3721 152.179 23.6675 152.757 24.7966C153.343 25.9169 154.166 26.7965 155.225 27.4355C156.284 28.0744 157.523 28.3939 158.941 28.3939ZM158.941 25.4268C157.724 25.4268 156.801 25.0198 156.171 24.2058C155.549 23.383 155.238 22.2846 155.238 20.9104C155.238 19.5713 155.536 18.486 156.131 17.6545C156.735 16.8142 157.672 16.3941 158.941 16.3941C160.184 16.3941 161.116 16.8055 161.737 17.6282C162.359 18.4422 162.669 19.5363 162.669 20.9104C162.669 22.2408 162.359 23.3261 161.737 24.1664C161.124 25.0066 160.192 25.4268 158.941 25.4268ZM173.177 28.407C174.201 28.407 175.098 28.2319 175.868 27.8818C176.647 27.523 177.295 27.0372 177.811 26.4245V28H180.608V13.8209H177.43V21.1074C177.43 22.254 177.264 23.1423 176.931 23.7725C176.608 24.394 176.192 24.8272 175.684 25.0723C175.177 25.3086 174.651 25.4268 174.109 25.4268C173.356 25.4268 172.757 25.2648 172.31 24.941C171.864 24.6084 171.531 24.1926 171.312 23.6937C171.102 23.1861 170.962 22.6609 170.892 22.1183C170.831 21.5756 170.8 21.0855 170.8 20.6479V13.8209H167.597V21.7376C167.597 22.0702 167.623 22.5122 167.676 23.0636C167.737 23.615 167.864 24.197 168.056 24.8097C168.249 25.4224 168.547 26.0044 168.949 26.5558C169.352 27.0985 169.894 27.5449 170.577 27.895C171.269 28.2363 172.135 28.407 173.177 28.407ZM191.819 28V25.348C190.935 25.4793 190.147 25.5143 189.456 25.453C188.764 25.3917 188.261 25.0985 187.946 24.5734C187.78 24.302 187.688 23.9519 187.67 23.5231C187.661 23.0854 187.657 22.5866 187.657 22.0264V16.3022H191.819V13.8209H187.657V9.88223H184.506V13.8209H181.933V16.3022H184.506V22.2102C184.506 23.0242 184.515 23.7506 184.532 24.3896C184.55 25.0198 184.721 25.6412 185.044 26.2539C185.412 26.9278 185.95 27.4223 186.659 27.7374C187.368 28.0438 188.169 28.2057 189.062 28.2232C189.963 28.2494 190.882 28.1751 191.819 28ZM194.605 28H197.848V24.7572H194.605V28ZM205.639 28.3939C206.479 28.3939 207.236 28.267 207.91 28.0131C208.584 27.7593 209.175 27.4048 209.683 26.9497V28H212.479V9.0945H209.289V14.5167C208.816 14.1666 208.287 13.8996 207.7 13.7158C207.114 13.5233 206.466 13.427 205.757 13.427C204.418 13.427 203.254 13.7509 202.265 14.3985C201.285 15.0462 200.523 15.9346 199.981 17.0637C199.438 18.1928 199.167 19.475 199.167 20.9104C199.167 22.3284 199.434 23.6018 199.967 24.7309C200.501 25.86 201.254 26.7528 202.226 27.4092C203.197 28.0656 204.335 28.3939 205.639 28.3939ZM206.125 25.558C205.302 25.558 204.624 25.3524 204.09 24.941C203.556 24.5209 203.158 23.9607 202.895 23.2605C202.641 22.5603 202.514 21.7769 202.514 20.9104C202.514 20.0527 202.646 19.2737 202.908 18.5735C203.18 17.8646 203.587 17.3044 204.129 16.893C204.681 16.4729 205.381 16.2628 206.23 16.2628C207.438 16.2628 208.313 16.6917 208.856 17.5495C209.407 18.4072 209.683 19.5275 209.683 20.9104C209.683 22.2846 209.407 23.4049 208.856 24.2714C208.313 25.1292 207.403 25.558 206.125 25.558ZM221.819 28.3939C223.184 28.3939 224.431 28.0438 225.56 27.3436C226.698 26.6346 227.538 25.6368 228.081 24.3502L224.956 23.4049C224.326 24.7528 223.219 25.4268 221.635 25.4268C220.558 25.4268 219.709 25.116 219.088 24.4946C218.466 23.8644 218.095 22.9629 217.972 21.7901H228.239C228.361 20.0833 228.173 18.6041 227.674 17.3525C227.175 16.1009 226.409 15.1338 225.377 14.4511C224.353 13.7684 223.105 13.427 221.635 13.427C220.243 13.427 219.018 13.7421 217.959 14.3723C216.9 14.9937 216.073 15.8777 215.477 17.0243C214.882 18.1709 214.585 19.5188 214.585 21.068C214.585 22.5034 214.887 23.7725 215.491 24.8753C216.103 25.9782 216.952 26.8403 218.038 27.4617C219.123 28.0831 220.383 28.3939 221.819 28.3939ZM221.766 16.1972C222.746 16.1972 223.499 16.4554 224.024 16.9718C224.558 17.4794 224.895 18.2891 225.035 19.4006H218.051C218.427 17.265 219.666 16.1972 221.766 16.1972ZM233.701 28H236.878L242.025 13.8209H238.848L235.29 24.1007L231.719 13.8209H228.555L233.701 28Z" fill="white"/>
<path d="M19.2053 13.1479L15.5825 23.4813H10.6562L14.2791 13.1479H19.2053Z" fill="white"/>
<path d="M27.9091 13.1479L24.2641 23.4813H19.3379L22.9829 13.1479H27.9091Z" fill="white"/>
<path d="M7.62967 31.5031L9.17602 27.0809L8.91093 26.8365C6.34841 24.4587 4.86833 21.1031 4.86833 17.6142C4.86833 11.8365 8.93302 6.70314 14.5441 5.41425C15.3835 5.21425 16.2671 5.12536 17.2833 5.12536H30.9354L32.5038 0.658691H17.3054C16.9961 0.658691 16.731 0.658691 16.466 0.680914C7.47504 1.12536 0.450195 8.5698 0.450195 17.6142C0.450195 22.9031 2.83599 27.8142 7.01113 31.0365L7.62967 31.5031Z" fill="white"/>
<path d="M30.9347 5.12598L29.3883 9.5482L29.6534 9.79264C32.2159 12.1482 33.696 15.526 33.696 19.0149C33.696 24.7926 29.6313 29.926 24.0203 31.2149C23.1808 31.4149 22.2972 31.5038 21.281 31.5038H7.62899L6.06055 35.9704H21.2589C21.5682 35.9704 21.8333 35.9704 22.0984 35.9482C31.0672 35.5038 38.0921 28.0593 38.0921 19.0149C38.0921 13.726 35.7063 8.81487 31.5311 5.59264L30.9347 5.12598Z" fill="white"/>
</svg>
