<svg width="243" height="36" fill="none" xmlns="http://www.w3.org/2000/svg"><path d="M58.313 28.394c1.296 0 2.508-.219 3.637-.657 1.129-.437 2.04-1.094 2.73-1.969.7-.875 1.051-1.965 1.051-3.269 0-.936-.175-1.711-.525-2.324a4.314 4.314 0 0 0-1.326-1.497 7.107 7.107 0 0 0-1.668-.88 17.197 17.197 0 0 0-1.549-.498l-3.387-.945c-.42-.114-.84-.254-1.26-.42a3.102 3.102 0 0 1-1.05-.696c-.28-.298-.42-.679-.42-1.142 0-.49.161-.92.485-1.287.333-.368.766-.652 1.3-.853a4.642 4.642 0 0 1 1.759-.276c.972.026 1.847.31 2.626.853.779.543 1.269 1.313 1.47 2.31l3.4-.59c-.42-1.75-1.282-3.103-2.586-4.057-1.304-.962-2.928-1.453-4.87-1.47-1.278-.009-2.443.197-3.493.617-1.041.411-1.873 1.028-2.494 1.851-.613.823-.92 1.842-.92 3.06 0 .83.136 1.53.408 2.1.28.56.634 1.02 1.063 1.378.438.36.897.644 1.379.854.49.21.945.376 1.365.498l4.884 1.445c1.4.42 2.1 1.146 2.1 2.18a2.12 2.12 0 0 1-.564 1.483c-.368.402-.849.709-1.444.919a5.68 5.68 0 0 1-1.904.315c-1.138 0-2.144-.307-3.02-.92-.866-.612-1.44-1.478-1.72-2.599l-3.282.5c.202 1.233.657 2.301 1.366 3.203.718.892 1.628 1.58 2.73 2.06 1.112.482 2.355.723 3.73.723Zm15.918 0c1.366 0 2.613-.35 3.742-1.05 1.138-.71 1.978-1.707 2.52-2.994l-3.124-.945c-.63 1.348-1.737 2.022-3.322 2.022-1.076 0-1.925-.311-2.546-.932-.622-.63-.994-1.532-1.116-2.705H80.65c.123-1.707-.065-3.186-.564-4.438-.5-1.251-1.265-2.218-2.298-2.9-1.024-.684-2.271-1.025-3.742-1.025-1.391 0-2.617.315-3.676.945-1.059.622-1.886 1.506-2.48 2.652-.596 1.147-.894 2.495-.894 4.044 0 1.435.302 2.704.906 3.807a6.637 6.637 0 0 0 2.547 2.587c1.085.621 2.346.932 3.781.932Zm-.052-12.197c.98 0 1.733.258 2.258.775.534.507.87 1.317 1.01 2.429h-6.984c.377-2.136 1.615-3.204 3.716-3.204ZM91.103 28v-2.652c-.883.131-1.671.166-2.363.105-.691-.061-1.194-.354-1.51-.88-.166-.271-.258-.621-.275-1.05a75.3 75.3 0 0 1-.013-1.497v-5.724h4.162v-2.481h-4.162V9.882H83.79v3.939h-2.573v2.481h2.573v5.908c0 .814.008 1.54.026 2.18.018.63.188 1.251.512 1.864a3.33 3.33 0 0 0 1.615 1.483c.709.307 1.51.469 2.402.486.902.026 1.821-.048 2.757-.223Zm6.804 0h3.164V12.062h6.118V9.095h-15.4v2.967h6.118V28Zm10.856-16.332h3.164V8.766h-3.164v2.902Zm0 16.332h3.164V13.82h-3.164V28Zm6.283 0h3.19v-8.73c0-.885.241-1.602.723-2.154.49-.551 1.137-.827 1.943-.827.831 0 1.488.276 1.969.827.481.552.722 1.322.722 2.31V28h3.151v-8.73c0-.937.254-1.668.761-2.193.517-.525 1.156-.788 1.917-.788.814 0 1.462.276 1.943.827.49.543.735 1.3.735 2.271V28h3.165v-9.413c0-1.54-.421-2.78-1.261-3.716-.831-.936-2.03-1.405-3.597-1.405-.919 0-1.759.202-2.521.604a4.63 4.63 0 0 0-1.799 1.655 4.181 4.181 0 0 0-1.601-1.641c-.692-.412-1.536-.618-2.534-.618-.849 0-1.632.171-2.35.512a4.801 4.801 0 0 0-1.759 1.379V13.82h-2.797V28Zm29.071.394c1.365 0 2.612-.35 3.741-1.05 1.138-.71 1.978-1.707 2.521-2.994l-3.125-.945c-.63 1.348-1.737 2.022-3.321 2.022-1.077 0-1.926-.311-2.547-.932-.622-.63-.994-1.532-1.116-2.705h10.267c.122-1.707-.066-3.186-.565-4.438-.499-1.251-1.265-2.218-2.297-2.9-1.025-.684-2.272-1.025-3.742-1.025-1.392 0-2.617.315-3.676.945-1.059.622-1.886 1.506-2.482 2.652-.595 1.147-.892 2.495-.892 4.044 0 1.435.302 2.704.906 3.807a6.628 6.628 0 0 0 2.547 2.587c1.085.621 2.345.932 3.781.932Zm-.053-12.197c.98 0 1.733.258 2.258.775.534.507.871 1.317 1.011 2.429h-6.984c.376-2.136 1.614-3.204 3.715-3.204Zm14.877 12.197c1.418 0 2.656-.315 3.715-.945a6.58 6.58 0 0 0 2.468-2.64c.596-1.128.893-2.428.893-3.899 0-1.461-.293-2.752-.879-3.873a6.569 6.569 0 0 0-2.469-2.652c-1.059-.639-2.302-.958-3.728-.958-1.392 0-2.617.315-3.676.945a6.583 6.583 0 0 0-2.482 2.626c-.595 1.12-.892 2.424-.892 3.912 0 1.462.288 2.758.866 3.887a6.58 6.58 0 0 0 2.468 2.639c1.059.638 2.298.958 3.716.958Zm0-2.967c-1.217 0-2.14-.407-2.77-1.221-.622-.823-.933-1.921-.933-3.296 0-1.339.298-2.424.893-3.256.604-.84 1.541-1.26 2.81-1.26 1.243 0 2.175.412 2.796 1.234.622.814.932 1.908.932 3.282 0 1.33-.31 2.416-.932 3.256-.613.84-1.545 1.26-2.796 1.26Zm14.236 2.98c1.024 0 1.921-.175 2.691-.525a5.514 5.514 0 0 0 1.943-1.458V28h2.797V13.82h-3.178v7.287c0 1.147-.166 2.035-.499 2.666-.323.621-.739 1.054-1.247 1.3a3.691 3.691 0 0 1-1.575.354c-.753 0-1.352-.162-1.799-.486a3.078 3.078 0 0 1-.998-1.247 6.168 6.168 0 0 1-.42-1.576 13.29 13.29 0 0 1-.092-1.47V13.82h-3.203v7.917c0 .332.026.774.079 1.326.061.551.188 1.133.38 1.746a6.03 6.03 0 0 0 .893 1.746c.403.543.945.989 1.628 1.339.692.341 1.558.512 2.6.512ZM191.819 28v-2.652c-.884.131-1.672.166-2.363.105-.692-.061-1.195-.354-1.51-.88-.166-.271-.258-.621-.276-1.05a73.927 73.927 0 0 1-.013-1.497v-5.724h4.162v-2.481h-4.162V9.882h-3.151v3.939h-2.573v2.481h2.573v5.908c0 .814.009 1.54.026 2.18.018.63.189 1.251.512 1.864a3.332 3.332 0 0 0 1.615 1.483c.709.307 1.51.469 2.403.486.901.026 1.82-.048 2.757-.223Zm2.786 0h3.243v-3.243h-3.243V28Zm11.034.394c.84 0 1.597-.127 2.271-.38a5.57 5.57 0 0 0 1.773-1.064V28h2.796V9.095h-3.19v5.422a5.319 5.319 0 0 0-1.589-.801 6.2 6.2 0 0 0-1.943-.289c-1.339 0-2.503.324-3.492.972-.98.647-1.742 1.536-2.284 2.665-.543 1.129-.814 2.411-.814 3.846 0 1.418.267 2.692.8 3.82.534 1.13 1.287 2.023 2.259 2.68.971.656 2.109.984 3.413.984Zm.486-2.836c-.823 0-1.501-.206-2.035-.617-.534-.42-.932-.98-1.195-1.68-.254-.7-.381-1.484-.381-2.35 0-.858.132-1.637.394-2.338.272-.708.679-1.269 1.221-1.68.552-.42 1.252-.63 2.101-.63 1.208 0 2.083.429 2.626 1.286.551.858.827 1.979.827 3.361 0 1.375-.276 2.495-.827 3.361-.543.858-1.453 1.287-2.731 1.287Zm15.694 2.836c1.365 0 2.612-.35 3.741-1.05 1.138-.71 1.978-1.707 2.521-2.994l-3.125-.945c-.63 1.348-1.737 2.022-3.321 2.022-1.077 0-1.926-.311-2.547-.932-.622-.63-.993-1.532-1.116-2.705h10.267c.122-1.707-.066-3.186-.565-4.438-.499-1.251-1.265-2.218-2.297-2.9-1.024-.684-2.272-1.025-3.742-1.025-1.392 0-2.617.315-3.676.945-1.059.622-1.886 1.506-2.482 2.652-.595 1.147-.892 2.495-.892 4.044 0 1.435.302 2.704.906 3.807a6.628 6.628 0 0 0 2.547 2.587c1.085.621 2.345.932 3.781.932Zm-.053-12.197c.98 0 1.733.258 2.258.775.534.507.871 1.317 1.011 2.429h-6.984c.376-2.136 1.615-3.204 3.715-3.204ZM233.701 28h3.177l5.147-14.18h-3.177L235.29 24.1l-3.571-10.28h-3.164L233.701 28ZM19.205 13.148 15.583 23.48h-4.927l3.623-10.333h4.926ZM27.91 13.148 24.263 23.48h-4.926l3.645-10.333h4.926Z" fill="#fff"/><path d="m7.63 31.503 1.546-4.422-.265-.244a12.625 12.625 0 0 1-4.043-9.223c0-5.778 4.065-10.91 9.676-12.2.84-.2 1.723-.289 2.74-.289h13.651L32.504.66H17.305c-.309 0-.574 0-.839.022C7.475 1.125.45 8.57.45 17.614c0 5.29 2.386 10.2 6.561 13.422l.619.467Z" fill="#fff"/><path d="m30.935 5.126-1.547 4.422.265.245a12.588 12.588 0 0 1 4.043 9.222c0 5.778-4.065 10.911-9.676 12.2-.84.2-1.723.289-2.739.289H7.629L6.061 35.97h15.198c.31 0 .574 0 .84-.022 8.968-.444 15.993-7.889 15.993-16.933 0-5.289-2.386-10.2-6.56-13.422l-.597-.467Z" fill="#fff"/></svg>